mtllib 15190_D-010.mtl

v 353.1941 790.7868 39368.6400
v 353.1921 791.0143 39368.6400
v 353.1926 790.9019 39368.6400
v 353.1861 791.2418 39368.6400
v 353.1886 791.1293 39368.6400
v 353.1762 791.4691 39368.6400
v 353.1806 791.3567 39368.6400
v 353.1623 791.6961 39368.6400
v 353.1687 791.5839 39368.6400
v 353.1445 791.9229 39368.6400
v 353.1528 791.8108 39368.6400
v 353.1227 792.1494 39368.6400
v 353.1330 792.0374 39368.6400
v 353.0969 792.3755 39368.6400
v 353.1092 792.2637 39368.6400
v 353.0672 792.6010 39368.6400
v 353.0814 792.4895 39368.6400
v 353.0336 792.8260 39368.6400
v 353.0497 792.7148 39368.6400
v 352.9960 793.0505 39368.6400
v 353.0141 792.9395 39368.6400
v 352.9546 793.2742 39368.6400
v 352.9746 793.1635 39368.6400
v 352.9092 793.4971 39368.6400
v 352.9312 793.3868 39368.6400
v 352.8600 793.7192 39368.6400
v 352.8838 793.6094 39368.6400
v 352.8069 793.9405 39368.6400
v 352.8326 793.8310 39368.6400
v 352.7499 794.1608 39368.6400
v 352.7776 794.0518 39368.6400
v 352.6891 794.3800 39368.6400
v 352.7187 794.2715 39368.6400
v 352.6245 794.5981 39368.6400
v 352.6559 794.4902 39368.6400
v 352.5561 794.8151 39368.6400
v 352.5894 794.7078 39368.6400
v 352.4839 795.0309 39368.6400
v 352.5191 794.9241 39368.6400
v 352.4079 795.2454 39368.6400
v 352.4450 795.1392 39368.6400
v 352.3282 795.4585 39368.6400
v 352.3672 795.3530 39368.6400
v 352.2448 795.6702 39368.6400
v 352.2856 795.5654 39368.6400
v 352.1578 795.8804 39368.6400
v 352.2003 795.7763 39368.6400
v 352.0670 796.0890 39368.6400
v 352.1115 795.9857 39368.6400
v 351.9727 796.2960 39368.6400
v 352.0189 796.1935 39368.6400
v 351.8748 796.5014 39368.6400
v 351.9227 796.3997 39368.6400
v 351.7733 796.7050 39368.6400
v 351.8230 796.6041 39368.6400
v 351.6682 796.9068 39368.6400
v 351.7197 796.8068 39368.6400
v 351.5596 797.1068 39368.6400
v 351.6128 797.0077 39368.6400
v 351.4476 797.3048 39368.6400
v 351.5025 797.2067 39368.6400
v 351.3321 797.5009 39368.6400
v 351.3888 797.4037 39368.6400
v 351.2132 797.6948 39368.6400
v 351.2716 797.5987 39368.6400
v 351.0910 797.8867 39368.6400
v 351.1510 797.7916 39368.6400
v 350.9654 798.0764 39368.6400
v 351.0271 797.9824 39368.6400
v 350.8365 798.2639 39368.6400
v 350.8998 798.1710 39368.6400
v 350.7044 798.4492 39368.6400
v 350.7693 798.3573 39368.6400
v 350.5691 798.6321 39368.6400
v 350.6356 798.5414 39368.6400
v 350.4306 798.8126 39368.6400
v 350.4987 798.7230 39368.6400
v 350.2889 798.9906 39368.6400
v 350.3586 798.9023 39368.6400
v 350.1442 799.1662 39368.6400
v 350.2154 799.0791 39368.6400
v 349.9965 799.3392 39368.6400
v 350.0691 799.2534 39368.6400
v 349.8457 799.5096 39368.6400
v 349.9199 799.4250 39368.6400
v 349.6920 799.6773 39368.6400
v 349.7676 799.5941 39368.6400
v 349.5354 799.8423 39368.6400
v 349.6124 799.7604 39368.6400
v 349.3759 800.0046 39368.6400
v 349.4544 799.9241 39368.6400
v 349.2137 800.1641 39368.6400
v 349.2935 800.0850 39368.6400
v 349.0486 800.3207 39368.6400
v 349.1298 800.2430 39368.6400
v 348.8809 800.4744 39368.6400
v 348.9634 800.3981 39368.6400
v 348.7104 800.6252 39368.6400
v 348.7943 800.5503 39368.6400
v 348.5374 800.7729 39368.6400
v 348.6226 800.6995 39368.6400
v 348.3619 800.9177 39368.6400
v 348.4483 800.8458 39368.6400
v 348.1838 801.0593 39368.6400
v 348.2715 800.9889 39368.6400
v 348.0033 801.1978 39368.6400
v 348.0923 801.1290 39368.6400
v 347.8204 801.3331 39368.6400
v 347.9105 801.2659 39368.6400
v 347.6352 801.4653 39368.6400
v 347.7265 801.3995 39368.6400
v 347.4477 801.5941 39368.6400
v 347.5401 801.5300 39368.6400
v 347.2580 801.7197 39368.6400
v 347.3515 801.6572 39368.6400
v 347.0661 801.8419 39368.6400
v 347.1607 801.7811 39368.6400
v 346.8721 801.9608 39368.6400
v 346.9677 801.9017 39368.6400
v 346.6761 802.0763 39368.6400
v 346.7727 802.0188 39368.6400
v 346.4781 802.1884 39368.6400
v 346.5757 802.1325 39368.6400
v 346.2781 802.2969 39368.6400
v 346.3767 802.2428 39368.6400
v 346.0763 802.4020 39368.6400
v 346.1758 802.3496 39368.6400
v 345.8727 802.5035 39368.6400
v 345.9731 802.4529 39368.6400
v 345.6673 802.6014 39368.6400
v 345.7686 802.5526 39368.6400
v 345.4603 802.6958 39368.6400
v 345.5624 802.6487 39368.6400
v 345.2516 802.7865 39368.6400
v 345.3546 802.7412 39368.6400
v 345.0414 802.8735 39368.6400
v 345.1451 802.8301 39368.6400
v 344.8297 802.9570 39368.6400
v 344.9342 802.9153 39368.6400
v 344.6166 803.0366 39368.6400
v 344.7218 802.9968 39368.6400
v 344.4022 803.1125 39368.6400
v 344.5080 803.0746 39368.6400
v 344.1864 803.1848 39368.6400
v 344.2929 803.1486 39368.6400
v 343.9694 803.2532 39368.6400
v 344.0765 803.2189 39368.6400
v 343.7513 803.3178 39368.6400
v 343.8589 803.2854 39368.6400
v 343.5320 803.3786 39368.6400
v 343.6403 803.3481 39368.6400
v 343.3118 803.4355 39368.6400
v 343.4205 803.4069 39368.6400
v 343.0905 803.4887 39368.6400
v 343.1997 803.4620 39368.6400
v 342.8684 803.5379 39368.6400
v 342.9781 803.5131 39368.6400
v 342.6454 803.5833 39368.6400
v 342.7556 803.5604 39368.6400
v 342.4218 803.6248 39368.6400
v 342.5322 803.6038 39368.6400
v 342.1974 803.6623 39368.6400
v 342.3082 803.6432 39368.6400
v 341.9723 803.6959 39368.6400
v 342.0835 803.6788 39368.6400
v 341.7468 803.7256 39368.6400
v 341.8582 803.7104 39368.6400
v 341.5207 803.7514 39368.6400
v 341.6324 803.7382 39368.6400
v 341.2942 803.7732 39368.6400
v 341.4061 803.7619 39368.6400
v 341.0674 803.7910 39368.6400
v 341.1795 803.7817 39368.6400
v 340.8403 803.8049 39368.6400
v 340.9525 803.7975 39368.6400
v 340.6130 803.8149 39368.6400
v 340.7253 803.8094 39368.6400
v 340.3856 803.8208 39368.6400
v 340.4980 803.8174 39368.6400
v 340.1581 803.8228 39368.6400
v 340.2705 803.8213 39368.6400
v 339.9305 803.8208 39368.6400
v 340.0430 803.8213 39368.6400
v 339.7031 803.8149 39368.6400
v 339.8155 803.8173 39368.6400
v 339.4758 803.8049 39368.6400
v 339.5882 803.8093 39368.6400
v 339.2487 803.7910 39368.6400
v 339.3610 803.7974 39368.6400
v 339.0219 803.7732 39368.6400
v 339.1340 803.7815 39368.6400
v 338.7954 803.7514 39368.6400
v 338.9074 803.7617 39368.6400
v 338.5694 803.7256 39368.6400
v 338.6812 803.7379 39368.6400
v 338.3438 803.6959 39368.6400
v 338.4554 803.7101 39368.6400
v 338.1188 803.6623 39368.6400
v 338.2301 803.6784 39368.6400
v 337.8944 803.6248 39368.6400
v 338.0054 803.6428 39368.6400
v 337.6707 803.5833 39368.6400
v 337.7813 803.6033 39368.6400
v 337.4477 803.5379 39368.6400
v 337.5580 803.5599 39368.6400
v 337.2256 803.4887 39368.6400
v 337.3355 803.5125 39368.6400
v 337.0044 803.4355 39368.6400
v 337.1138 803.4614 39368.6400
v 336.7841 803.3786 39368.6400
v 336.8931 803.4062 39368.6400
v 336.5648 803.3178 39368.6400
v 336.6733 803.3474 39368.6400
v 336.3467 803.2532 39368.6400
v 336.4547 803.2847 39368.6400
v 336.1297 803.1848 39368.6400
v 336.2371 803.2181 39368.6400
v 335.9139 803.1125 39368.6400
v 336.0208 803.1478 39368.6400
v 335.6995 803.0366 39368.6400
v 335.8056 803.0737 39368.6400
v 335.4864 802.9570 39368.6400
v 335.5919 802.9958 39368.6400
v 335.2747 802.8735 39368.6400
v 335.3795 802.9143 39368.6400
v 335.0645 802.7865 39368.6400
v 335.1685 802.8290 39368.6400
v 334.8558 802.6958 39368.6400
v 334.9592 802.7402 39368.6400
v 334.6488 802.6014 39368.6400
v 334.7513 802.6476 39368.6400
v 334.4435 802.5035 39368.6400
v 334.5452 802.5515 39368.6400
v 334.2398 802.4020 39368.6400
v 334.3407 802.4517 39368.6400
v 334.0380 802.2969 39368.6400
v 334.1380 802.3484 39368.6400
v 333.8381 802.1884 39368.6400
v 333.9371 802.2416 39368.6400
v 333.6400 802.0763 39368.6400
v 333.7382 802.1312 39368.6400
v 333.4440 801.9608 39368.6400
v 333.5412 802.0175 39368.6400
v 333.2500 801.8419 39368.6400
v 333.3462 801.9003 39368.6400
v 333.0581 801.7197 39368.6400
v 333.1532 801.7797 39368.6400
v 332.8684 801.5941 39368.6400
v 332.9625 801.6558 39368.6400
v 332.6809 801.4653 39368.6400
v 332.7739 801.5286 39368.6400
v 332.4957 801.3331 39368.6400
v 332.5875 801.3980 39368.6400
v 332.3128 801.1978 39368.6400
v 332.4035 801.2643 39368.6400
v 332.1323 801.0593 39368.6400
v 332.2218 801.1274 39368.6400
v 331.9542 800.9177 39368.6400
v 332.0425 800.9873 39368.6400
v 331.7787 800.7729 39368.6400
v 331.8658 800.8441 39368.6400
v 331.6057 800.6252 39368.6400
v 331.6915 800.6978 39368.6400
v 331.4353 800.4744 39368.6400
v 331.5198 800.5486 39368.6400
v 331.2675 800.3207 39368.6400
v 331.3508 800.3963 39368.6400
v 331.1025 800.1641 39368.6400
v 331.1844 800.2411 39368.6400
v 330.9402 800.0046 39368.6400
v 331.0208 800.0831 39368.6400
v 330.7807 799.8423 39368.6400
v 330.8599 799.9222 39368.6400
v 330.6241 799.6773 39368.6400
v 330.7019 799.7585 39368.6400
v 330.4704 799.5096 39368.6400
v 330.5468 799.5922 39368.6400
v 330.3196 799.3392 39368.6400
v 330.3945 799.4230 39368.6400
v 330.1719 799.1662 39368.6400
v 330.2453 799.2513 39368.6400
v 330.0272 798.9906 39368.6400
v 330.0991 799.0771 39368.6400
v 329.8855 798.8126 39368.6400
v 329.9559 798.9003 39368.6400
v 329.7470 798.6321 39368.6400
v 329.8159 798.7209 39368.6400
v 329.6117 798.4492 39368.6400
v 329.6790 798.5392 39368.6400
v 329.4796 798.2639 39368.6400
v 329.5453 798.3552 39368.6400
v 329.3507 798.0764 39368.6400
v 329.4148 798.1688 39368.6400
v 329.2251 797.8867 39368.6400
v 329.2876 797.9802 39368.6400
v 329.1029 797.6948 39368.6400
v 329.1637 797.7894 39368.6400
v 328.9840 797.5009 39368.6400
v 329.0432 797.5964 39368.6400
v 328.8685 797.3048 39368.6400
v 328.9260 797.4014 39368.6400
v 328.7565 797.1068 39368.6400
v 328.8123 797.2044 39368.6400
v 328.6479 796.9068 39368.6400
v 328.7020 797.0054 39368.6400
v 328.5429 796.7050 39368.6400
v 328.5952 796.8045 39368.6400
v 328.4414 796.5014 39368.6400
v 328.4920 796.6018 39368.6400
v 328.3434 796.2960 39368.6400
v 328.3923 796.3973 39368.6400
v 328.2491 796.0890 39368.6400
v 328.2961 796.1911 39368.6400
v 328.1584 795.8804 39368.6400
v 328.2036 795.9833 39368.6400
v 328.0713 795.6702 39368.6400
v 328.1148 795.7739 39368.6400
v 327.9879 795.4585 39368.6400
v 328.0296 795.5629 39368.6400
v 327.9082 795.2454 39368.6400
v 327.9481 795.3505 39368.6400
v 327.8323 795.0309 39368.6400
v 327.8703 795.1367 39368.6400
v 327.7601 794.8151 39368.6400
v 327.7962 794.9216 39368.6400
v 327.6917 794.5981 39368.6400
v 327.7260 794.7053 39368.6400
v 327.6270 794.3800 39368.6400
v 327.6595 794.4877 39368.6400
v 327.5662 794.1608 39368.6400
v 327.5968 794.2690 39368.6400
v 327.5093 793.9405 39368.6400
v 327.5379 794.0492 39368.6400
v 327.4561 793.7192 39368.6400
v 327.4829 793.8285 39368.6400
v 327.4069 793.4971 39368.6400
v 327.4317 793.6068 39368.6400
v 327.3615 793.2742 39368.6400
v 327.3845 793.3843 39368.6400
v 327.3201 793.0505 39368.6400
v 327.3411 793.1609 39368.6400
v 327.2825 792.8260 39368.6400
v 327.3016 792.9369 39368.6400
v 327.2489 792.6010 39368.6400
v 327.2660 792.7122 39368.6400
v 327.2192 792.3755 39368.6400
v 327.2344 792.4869 39368.6400
v 327.1935 792.1494 39368.6400
v 327.2067 792.2611 39368.6400
v 327.1717 791.9229 39368.6400
v 327.1829 792.0349 39368.6400
v 327.1538 791.6961 39368.6400
v 327.1631 791.8082 39368.6400
v 327.1399 791.4691 39368.6400
v 327.1473 791.5812 39368.6400
v 327.1300 791.2418 39368.6400
v 327.1354 791.3541 39368.6400
v 327.1240 791.0143 39368.6400
v 327.1275 791.1267 39368.6400
v 327.1220 790.7868 39368.6400
v 327.1235 790.8992 39368.6400
v 327.1240 790.5593 39368.6400
v 327.1235 790.6717 39368.6400
v 327.1300 790.3318 39368.6400
v 327.1275 790.4443 39368.6400
v 327.1399 790.1046 39368.6400
v 327.1355 790.2169 39368.6400
v 327.1538 789.8774 39368.6400
v 327.1474 789.9897 39368.6400
v 327.1717 789.6506 39368.6400
v 327.1633 789.7628 39368.6400
v 327.1935 789.4241 39368.6400
v 327.1832 789.5361 39368.6400
v 327.2192 789.1981 39368.6400
v 327.2070 789.3099 39368.6400
v 327.2489 788.9725 39368.6400
v 327.2347 789.0840 39368.6400
v 327.2825 788.7475 39368.6400
v 327.2664 788.8588 39368.6400
v 327.3201 788.5231 39368.6400
v 327.3020 788.6341 39368.6400
v 327.3615 788.2994 39368.6400
v 327.3416 788.4100 39368.6400
v 327.4069 788.0764 39368.6400
v 327.3850 788.1867 39368.6400
v 327.4561 787.8543 39368.6400
v 327.4323 787.9642 39368.6400
v 327.5093 787.6331 39368.6400
v 327.4835 787.7426 39368.6400
v 327.5662 787.4128 39368.6400
v 327.5386 787.5218 39368.6400
v 327.6270 787.1935 39368.6400
v 327.5975 787.3021 39368.6400
v 327.6917 786.9754 39368.6400
v 327.6602 787.0834 39368.6400
v 327.7601 786.7584 39368.6400
v 327.7267 786.8658 39368.6400
v 327.8323 786.5427 39368.6400
v 327.7971 786.6495 39368.6400
v 327.9082 786.3282 39368.6400
v 327.8712 786.4344 39368.6400
v 327.9879 786.1151 39368.6400
v 327.9490 786.2206 39368.6400
v 328.0713 785.9034 39368.6400
v 328.0305 786.0082 39368.6400
v 328.1584 785.6932 39368.6400
v 328.1158 785.7973 39368.6400
v 328.2491 785.4846 39368.6400
v 328.2047 785.5879 39368.6400
v 328.3434 785.2775 39368.6400
v 328.2972 785.3801 39368.6400
v 328.4414 785.0721 39368.6400
v 328.3934 785.1739 39368.6400
v 328.5429 784.8685 39368.6400
v 328.4932 784.9694 39368.6400
v 328.6479 784.6667 39368.6400
v 328.5965 784.7667 39368.6400
v 328.7565 784.4668 39368.6400
v 328.7033 784.5659 39368.6400
v 328.8685 784.2688 39368.6400
v 328.8136 784.3669 39368.6400
v 328.9840 784.0728 39368.6400
v 328.9274 784.1699 39368.6400
v 329.1029 783.8787 39368.6400
v 329.0446 783.9749 39368.6400
v 329.2251 783.6868 39368.6400
v 329.1651 783.7820 39368.6400
v 329.3507 783.4971 39368.6400
v 329.2891 783.5912 39368.6400
v 329.4796 783.3096 39368.6400
v 329.4163 783.4026 39368.6400
v 329.6117 783.1244 39368.6400
v 329.5468 783.2162 39368.6400
v 329.7470 782.9415 39368.6400
v 329.6805 783.0322 39368.6400
v 329.8855 782.7610 39368.6400
v 329.8175 782.8505 39368.6400
v 330.0272 782.5829 39368.6400
v 329.9576 782.6713 39368.6400
v 330.1719 782.4074 39368.6400
v 330.1007 782.4944 39368.6400
v 330.3196 782.2344 39368.6400
v 330.2470 782.3202 39368.6400
v 330.4704 782.0640 39368.6400
v 330.3963 782.1485 39368.6400
v 330.6241 781.8962 39368.6400
v 330.5485 781.9795 39368.6400
v 330.7807 781.7312 39368.6400
v 330.7037 781.8131 39368.6400
v 330.9402 781.5689 39368.6400
v 330.8618 781.6495 39368.6400
v 331.1025 781.4094 39368.6400
v 331.0226 781.4886 39368.6400
v 331.2675 781.2529 39368.6400
v 331.1863 781.3306 39368.6400
v 331.4353 781.0991 39368.6400
v 331.3527 781.1755 39368.6400
v 331.6057 780.9484 39368.6400
v 331.5218 781.0233 39368.6400
v 331.7787 780.8006 39368.6400
v 331.6935 780.8740 39368.6400
v 331.9542 780.6559 39368.6400
v 331.8678 780.7278 39368.6400
v 332.1323 780.5143 39368.6400
v 332.0446 780.5847 39368.6400
v 332.3128 780.3757 39368.6400
v 332.2239 780.4446 39368.6400
v 332.4957 780.2404 39368.6400
v 332.4056 780.3077 39368.6400
v 332.6809 780.1083 39368.6400
v 332.5897 780.1740 39368.6400
v 332.8684 779.9794 39368.6400
v 332.7760 780.0435 39368.6400
v 333.0581 779.8539 39368.6400
v 332.9647 779.9163 39368.6400
v 333.2500 779.7316 39368.6400
v 333.1555 779.7924 39368.6400
v 333.4440 779.6127 39368.6400
v 333.3484 779.6719 39368.6400
v 333.6400 779.4973 39368.6400
v 333.5434 779.5547 39368.6400
v 333.8381 779.3852 39368.6400
v 333.7404 779.4410 39368.6400
v 334.0380 779.2767 39368.6400
v 333.9395 779.3307 39368.6400
v 334.2398 779.1716 39368.6400
v 334.1403 779.2239 39368.6400
v 334.4435 779.0701 39368.6400
v 334.3430 779.1207 39368.6400
v 334.6488 778.9721 39368.6400
v 334.5475 779.0210 39368.6400
v 334.8558 778.8778 39368.6400
v 334.7537 778.9249 39368.6400
v 335.0645 778.7870 39368.6400
v 334.9616 778.8323 39368.6400
v 335.2747 778.7000 39368.6400
v 335.1710 778.7435 39368.6400
v 335.4864 778.6166 39368.6400
v 335.3819 778.6583 39368.6400
v 335.6995 778.5369 39368.6400
v 335.5943 778.5768 39368.6400
v 335.9139 778.4610 39368.6400
v 335.8081 778.4990 39368.6400
v 336.1297 778.3888 39368.6400
v 336.0232 778.4249 39368.6400
v 336.3467 778.3204 39368.6400
v 336.2396 778.3547 39368.6400
v 336.5648 778.2557 39368.6400
v 336.4572 778.2881 39368.6400
v 336.7841 778.1949 39368.6400
v 336.6759 778.2255 39368.6400
v 337.0044 778.1380 39368.6400
v 336.8956 778.1666 39368.6400
v 337.2256 778.0849 39368.6400
v 337.1164 778.1116 39368.6400
v 337.4477 778.0356 39368.6400
v 337.3380 778.0604 39368.6400
v 337.6707 777.9903 39368.6400
v 337.5606 778.0132 39368.6400
v 337.8944 777.9488 39368.6400
v 337.7839 777.9698 39368.6400
v 338.1188 777.9113 39368.6400
v 338.0080 777.9303 39368.6400
v 338.3438 777.8776 39368.6400
v 338.2327 777.8947 39368.6400
v 338.5694 777.8479 39368.6400
v 338.4579 777.8631 39368.6400
v 338.7954 777.8222 39368.6400
v 338.6838 777.8354 39368.6400
v 339.0219 777.8004 39368.6400
v 338.9100 777.8116 39368.6400
v 339.2487 777.7825 39368.6400
v 339.1367 777.7918 39368.6400
v 339.4758 777.7686 39368.6400
v 339.3636 777.7760 39368.6400
v 339.7031 777.7587 39368.6400
v 339.5908 777.7641 39368.6400
v 339.9305 777.7527 39368.6400
v 339.8181 777.7562 39368.6400
v 340.1581 777.7507 39368.6400
v 340.0456 777.7523 39368.6400
v 340.3856 777.7527 39368.6400
v 340.2731 777.7523 39368.6400
v 340.6130 777.7587 39368.6400
v 340.5006 777.7563 39368.6400
v 340.8403 777.7686 39368.6400
v 340.7280 777.7642 39368.6400
v 341.0674 777.7825 39368.6400
v 340.9551 777.7761 39368.6400
v 341.2942 777.8004 39368.6400
v 341.1821 777.7921 39368.6400
v 341.5207 777.8222 39368.6400
v 341.4087 777.8119 39368.6400
v 341.7468 777.8479 39368.6400
v 341.6350 777.8357 39368.6400
v 341.9723 777.8776 39368.6400
v 341.8608 777.8635 39368.6400
v 342.1974 777.9113 39368.6400
v 342.0861 777.8951 39368.6400
v 342.4218 777.9488 39368.6400
v 342.3108 777.9307 39368.6400
v 342.6454 777.9903 39368.6400
v 342.5348 777.9703 39368.6400
v 342.8684 778.0356 39368.6400
v 342.7581 778.0137 39368.6400
v 343.0905 778.0849 39368.6400
v 342.9807 778.0610 39368.6400
v 343.3118 778.1380 39368.6400
v 343.2023 778.1122 39368.6400
v 343.5320 778.1949 39368.6400
v 343.4230 778.1673 39368.6400
v 343.7513 778.2557 39368.6400
v 343.6428 778.2262 39368.6400
v 343.9694 778.3204 39368.6400
v 343.8615 778.2889 39368.6400
v 344.1864 778.3888 39368.6400
v 344.0790 778.3555 39368.6400
v 344.4022 778.4610 39368.6400
v 344.2954 778.4258 39368.6400
v 344.6166 778.5369 39368.6400
v 344.5105 778.4999 39368.6400
v 344.8297 778.6166 39368.6400
v 344.7242 778.5777 39368.6400
v 345.0414 778.7000 39368.6400
v 344.9366 778.6592 39368.6400
v 345.2516 778.7870 39368.6400
v 345.1476 778.7445 39368.6400
v 345.4603 778.8778 39368.6400
v 345.3570 778.8334 39368.6400
v 345.6673 778.9721 39368.6400
v 345.5648 778.9260 39368.6400
v 345.8727 779.0701 39368.6400
v 345.7710 779.0221 39368.6400
v 346.0763 779.1716 39368.6400
v 345.9754 779.1219 39368.6400
v 346.2781 779.2767 39368.6400
v 346.1781 779.2252 39368.6400
v 346.4781 779.3852 39368.6400
v 346.3790 779.3320 39368.6400
v 346.6761 779.4973 39368.6400
v 346.5780 779.4423 39368.6400
v 346.8721 779.6127 39368.6400
v 346.7750 779.5561 39368.6400
v 347.0661 779.7316 39368.6400
v 346.9700 779.6733 39368.6400
v 347.2580 779.8539 39368.6400
v 347.1629 779.7939 39368.6400
v 347.4477 779.9794 39368.6400
v 347.3537 779.9178 39368.6400
v 347.6352 780.1083 39368.6400
v 347.5423 780.0450 39368.6400
v 347.8204 780.2404 39368.6400
v 347.7286 780.1755 39368.6400
v 348.0033 780.3757 39368.6400
v 347.9127 780.3093 39368.6400
v 348.1838 780.5143 39368.6400
v 348.0943 780.4462 39368.6400
v 348.3619 780.6559 39368.6400
v 348.2736 780.5863 39368.6400
v 348.5374 780.8006 39368.6400
v 348.4504 780.7295 39368.6400
v 348.7104 780.9484 39368.6400
v 348.6246 780.8757 39368.6400
v 348.8809 781.0991 39368.6400
v 348.7963 781.0250 39368.6400
v 349.0486 781.2529 39368.6400
v 348.9654 781.1772 39368.6400
v 349.2137 781.4094 39368.6400
v 349.1317 781.3324 39368.6400
v 349.3759 781.5689 39368.6400
v 349.2954 781.4905 39368.6400
v 349.5354 781.7312 39368.6400
v 349.4562 781.6514 39368.6400
v 349.6920 781.8962 39368.6400
v 349.6142 781.8150 39368.6400
v 349.8457 782.0640 39368.6400
v 349.7694 781.9814 39368.6400
v 349.9965 782.2344 39368.6400
v 349.9216 782.1505 39368.6400
v 350.1442 782.4074 39368.6400
v 350.0708 782.3222 39368.6400
v 350.2889 782.5829 39368.6400
v 350.2170 782.4965 39368.6400
v 350.4306 782.7610 39368.6400
v 350.3602 782.6733 39368.6400
v 350.5691 782.9415 39368.6400
v 350.5002 782.8526 39368.6400
v 350.7044 783.1244 39368.6400
v 350.6371 783.0343 39368.6400
v 350.8365 783.3096 39368.6400
v 350.7708 783.2184 39368.6400
v 350.9654 783.4971 39368.6400
v 350.9013 783.4047 39368.6400
v 351.0910 783.6868 39368.6400
v 351.0285 783.5934 39368.6400
v 351.2132 783.8787 39368.6400
v 351.1524 783.7842 39368.6400
v 351.3321 784.0728 39368.6400
v 351.2729 783.9771 39368.6400
v 351.4476 784.2688 39368.6400
v 351.3901 784.1721 39368.6400
v 351.5596 784.4668 39368.6400
v 351.5038 784.3691 39368.6400
v 351.6682 784.6667 39368.6400
v 351.6141 784.5682 39368.6400
v 351.7733 784.8685 39368.6400
v 351.7209 784.7690 39368.6400
v 351.8748 785.0721 39368.6400
v 351.8241 784.9717 39368.6400
v 351.9727 785.2775 39368.6400
v 351.9239 785.1763 39368.6400
v 352.0670 785.4846 39368.6400
v 352.0200 785.3824 39368.6400
v 352.1578 785.6932 39368.6400
v 352.1125 785.5903 39368.6400
v 352.2448 785.9034 39368.6400
v 352.2014 785.7997 39368.6400
v 352.3282 786.1151 39368.6400
v 352.2866 786.0106 39368.6400
v 352.4079 786.3282 39368.6400
v 352.3681 786.2230 39368.6400
v 352.4839 786.5427 39368.6400
v 352.4459 786.4368 39368.6400
v 352.5561 786.7584 39368.6400
v 352.5199 786.6520 39368.6400
v 352.6245 786.9754 39368.6400
v 352.5902 786.8683 39368.6400
v 352.6891 787.1935 39368.6400
v 352.6567 787.0859 39368.6400
v 352.7499 787.4128 39368.6400
v 352.7194 787.3046 39368.6400
v 352.8069 787.6331 39368.6400
v 352.7782 787.5244 39368.6400
v 352.8600 787.8543 39368.6400
v 352.8332 787.7451 39368.6400
v 352.9092 788.0764 39368.6400
v 352.8844 787.9668 39368.6400
v 352.9546 788.2994 39368.6400
v 352.9317 788.1893 39368.6400
v 352.9960 788.5231 39368.6400
v 352.9751 788.4126 39368.6400
v 353.0336 788.7475 39368.6400
v 353.0145 788.6367 39368.6400
v 353.0672 788.9725 39368.6400
v 353.0501 788.8614 39368.6400
v 353.0969 789.1981 39368.6400
v 353.0818 789.0867 39368.6400
v 353.1227 789.4241 39368.6400
v 353.1094 789.3125 39368.6400
v 353.1445 789.6506 39368.6400
v 353.1332 789.5388 39368.6400
v 353.1623 789.8774 39368.6400
v 353.1530 789.7654 39368.6400
v 353.1762 790.1046 39368.6400
v 353.1689 789.9923 39368.6400
v 353.1861 790.3318 39368.6400
v 353.1807 790.2195 39368.6400
v 353.1921 790.5593 39368.6400
v 353.1887 790.4469 39368.6400
v 353.1926 790.6743 39368.6400
v 353.1941 790.7868 39160.0700
v 353.1921 791.0143 39160.0700
v 353.1926 790.9019 39160.0700
v 353.1861 791.2418 39160.0700
v 353.1886 791.1293 39160.0700
v 353.1762 791.4691 39160.0700
v 353.1806 791.3567 39160.0700
v 353.1623 791.6961 39160.0700
v 353.1687 791.5839 39160.0700
v 353.1445 791.9229 39160.0700
v 353.1528 791.8108 39160.0700
v 353.1227 792.1494 39160.0700
v 353.1330 792.0374 39160.0700
v 353.0969 792.3755 39160.0700
v 353.1092 792.2637 39160.0700
v 353.0672 792.6010 39160.0700
v 353.0814 792.4895 39160.0700
v 353.0336 792.8260 39160.0700
v 353.0497 792.7148 39160.0700
v 352.9960 793.0505 39160.0700
v 353.0141 792.9395 39160.0700
v 352.9546 793.2742 39160.0700
v 352.9746 793.1635 39160.0700
v 352.9092 793.4971 39160.0700
v 352.9312 793.3868 39160.0700
v 352.8600 793.7192 39160.0700
v 352.8838 793.6094 39160.0700
v 352.8069 793.9405 39160.0700
v 352.8326 793.8310 39160.0700
v 352.7499 794.1608 39160.0700
v 352.7776 794.0518 39160.0700
v 352.6891 794.3800 39160.0700
v 352.7187 794.2715 39160.0700
v 352.6245 794.5981 39160.0700
v 352.6559 794.4902 39160.0700
v 352.5561 794.8151 39160.0700
v 352.5894 794.7078 39160.0700
v 352.4839 795.0309 39160.0700
v 352.5191 794.9241 39160.0700
v 352.4079 795.2454 39160.0700
v 352.4450 795.1392 39160.0700
v 352.3282 795.4585 39160.0700
v 352.3672 795.3530 39160.0700
v 352.2448 795.6702 39160.0700
v 352.2856 795.5654 39160.0700
v 352.1578 795.8804 39160.0700
v 352.2003 795.7763 39160.0700
v 352.0670 796.0890 39160.0700
v 352.1115 795.9857 39160.0700
v 351.9727 796.2960 39160.0700
v 352.0189 796.1935 39160.0700
v 351.8748 796.5014 39160.0700
v 351.9227 796.3997 39160.0700
v 351.7733 796.7050 39160.0700
v 351.8230 796.6041 39160.0700
v 351.6682 796.9068 39160.0700
v 351.7197 796.8068 39160.0700
v 351.5596 797.1068 39160.0700
v 351.6128 797.0077 39160.0700
v 351.4476 797.3048 39160.0700
v 351.5025 797.2067 39160.0700
v 351.3321 797.5009 39160.0700
v 351.3888 797.4037 39160.0700
v 351.2132 797.6948 39160.0700
v 351.2716 797.5987 39160.0700
v 351.0910 797.8867 39160.0700
v 351.1510 797.7916 39160.0700
v 350.9654 798.0764 39160.0700
v 351.0271 797.9824 39160.0700
v 350.8365 798.2639 39160.0700
v 350.8998 798.1710 39160.0700
v 350.7044 798.4492 39160.0700
v 350.7693 798.3573 39160.0700
v 350.5691 798.6321 39160.0700
v 350.6356 798.5414 39160.0700
v 350.4306 798.8126 39160.0700
v 350.4987 798.7230 39160.0700
v 350.2889 798.9906 39160.0700
v 350.3586 798.9023 39160.0700
v 350.1442 799.1662 39160.0700
v 350.2154 799.0791 39160.0700
v 349.9965 799.3392 39160.0700
v 350.0691 799.2534 39160.0700
v 349.8457 799.5096 39160.0700
v 349.9199 799.4250 39160.0700
v 349.6920 799.6773 39160.0700
v 349.7676 799.5941 39160.0700
v 349.5354 799.8423 39160.0700
v 349.6124 799.7604 39160.0700
v 349.3759 800.0046 39160.0700
v 349.4544 799.9241 39160.0700
v 349.2137 800.1641 39160.0700
v 349.2935 800.0850 39160.0700
v 349.0486 800.3207 39160.0700
v 349.1298 800.2430 39160.0700
v 348.8809 800.4744 39160.0700
v 348.9634 800.3981 39160.0700
v 348.7104 800.6252 39160.0700
v 348.7943 800.5503 39160.0700
v 348.5374 800.7729 39160.0700
v 348.6226 800.6995 39160.0700
v 348.3619 800.9177 39160.0700
v 348.4483 800.8458 39160.0700
v 348.1838 801.0593 39160.0700
v 348.2715 800.9889 39160.0700
v 348.0033 801.1978 39160.0700
v 348.0923 801.1290 39160.0700
v 347.8204 801.3331 39160.0700
v 347.9105 801.2659 39160.0700
v 347.6352 801.4653 39160.0700
v 347.7265 801.3995 39160.0700
v 347.4477 801.5941 39160.0700
v 347.5401 801.5300 39160.0700
v 347.2580 801.7197 39160.0700
v 347.3515 801.6572 39160.0700
v 347.0661 801.8419 39160.0700
v 347.1607 801.7811 39160.0700
v 346.8721 801.9608 39160.0700
v 346.9677 801.9017 39160.0700
v 346.6761 802.0763 39160.0700
v 346.7727 802.0188 39160.0700
v 346.4781 802.1884 39160.0700
v 346.5757 802.1325 39160.0700
v 346.2781 802.2969 39160.0700
v 346.3767 802.2428 39160.0700
v 346.0763 802.4020 39160.0700
v 346.1758 802.3496 39160.0700
v 345.8727 802.5035 39160.0700
v 345.9731 802.4529 39160.0700
v 345.6673 802.6014 39160.0700
v 345.7686 802.5526 39160.0700
v 345.4603 802.6958 39160.0700
v 345.5624 802.6487 39160.0700
v 345.2516 802.7865 39160.0700
v 345.3546 802.7412 39160.0700
v 345.0414 802.8735 39160.0700
v 345.1451 802.8301 39160.0700
v 344.8297 802.9570 39160.0700
v 344.9342 802.9153 39160.0700
v 344.6166 803.0366 39160.0700
v 344.7218 802.9968 39160.0700
v 344.4022 803.1125 39160.0700
v 344.5080 803.0746 39160.0700
v 344.1864 803.1848 39160.0700
v 344.2929 803.1486 39160.0700
v 343.9694 803.2532 39160.0700
v 344.0765 803.2189 39160.0700
v 343.7513 803.3178 39160.0700
v 343.8589 803.2854 39160.0700
v 343.5320 803.3786 39160.0700
v 343.6403 803.3481 39160.0700
v 343.3118 803.4355 39160.0700
v 343.4205 803.4069 39160.0700
v 343.0905 803.4887 39160.0700
v 343.1997 803.4620 39160.0700
v 342.8684 803.5379 39160.0700
v 342.9781 803.5131 39160.0700
v 342.6454 803.5833 39160.0700
v 342.7556 803.5604 39160.0700
v 342.4218 803.6248 39160.0700
v 342.5322 803.6038 39160.0700
v 342.1974 803.6623 39160.0700
v 342.3082 803.6432 39160.0700
v 341.9723 803.6959 39160.0700
v 342.0835 803.6788 39160.0700
v 341.7468 803.7256 39160.0700
v 341.8582 803.7104 39160.0700
v 341.5207 803.7514 39160.0700
v 341.6324 803.7382 39160.0700
v 341.2942 803.7732 39160.0700
v 341.4061 803.7619 39160.0700
v 341.0674 803.7910 39160.0700
v 341.1795 803.7817 39160.0700
v 340.8403 803.8049 39160.0700
v 340.9525 803.7975 39160.0700
v 340.6130 803.8149 39160.0700
v 340.7253 803.8094 39160.0700
v 340.3856 803.8208 39160.0700
v 340.4980 803.8174 39160.0700
v 340.1581 803.8228 39160.0700
v 340.2705 803.8213 39160.0700
v 339.9305 803.8208 39160.0700
v 340.0430 803.8213 39160.0700
v 339.7031 803.8149 39160.0700
v 339.8155 803.8173 39160.0700
v 339.4758 803.8049 39160.0700
v 339.5882 803.8093 39160.0700
v 339.2487 803.7910 39160.0700
v 339.3610 803.7974 39160.0700
v 339.0219 803.7732 39160.0700
v 339.1340 803.7815 39160.0700
v 338.7954 803.7514 39160.0700
v 338.9074 803.7617 39160.0700
v 338.5694 803.7256 39160.0700
v 338.6812 803.7379 39160.0700
v 338.3438 803.6959 39160.0700
v 338.4554 803.7101 39160.0700
v 338.1188 803.6623 39160.0700
v 338.2301 803.6784 39160.0700
v 337.8944 803.6248 39160.0700
v 338.0054 803.6428 39160.0700
v 337.6707 803.5833 39160.0700
v 337.7813 803.6033 39160.0700
v 337.4477 803.5379 39160.0700
v 337.5580 803.5599 39160.0700
v 337.2256 803.4887 39160.0700
v 337.3355 803.5125 39160.0700
v 337.0044 803.4355 39160.0700
v 337.1138 803.4614 39160.0700
v 336.7841 803.3786 39160.0700
v 336.8931 803.4062 39160.0700
v 336.5648 803.3178 39160.0700
v 336.6733 803.3474 39160.0700
v 336.3467 803.2532 39160.0700
v 336.4547 803.2847 39160.0700
v 336.1297 803.1848 39160.0700
v 336.2371 803.2181 39160.0700
v 335.9139 803.1125 39160.0700
v 336.0208 803.1478 39160.0700
v 335.6995 803.0366 39160.0700
v 335.8056 803.0737 39160.0700
v 335.4864 802.9570 39160.0700
v 335.5919 802.9958 39160.0700
v 335.2747 802.8735 39160.0700
v 335.3795 802.9143 39160.0700
v 335.0645 802.7865 39160.0700
v 335.1685 802.8290 39160.0700
v 334.8558 802.6958 39160.0700
v 334.9592 802.7402 39160.0700
v 334.6488 802.6014 39160.0700
v 334.7513 802.6476 39160.0700
v 334.4435 802.5035 39160.0700
v 334.5452 802.5515 39160.0700
v 334.2398 802.4020 39160.0700
v 334.3407 802.4517 39160.0700
v 334.0380 802.2969 39160.0700
v 334.1380 802.3484 39160.0700
v 333.8381 802.1884 39160.0700
v 333.9371 802.2416 39160.0700
v 333.6400 802.0763 39160.0700
v 333.7382 802.1312 39160.0700
v 333.4440 801.9608 39160.0700
v 333.5412 802.0175 39160.0700
v 333.2500 801.8419 39160.0700
v 333.3462 801.9003 39160.0700
v 333.0581 801.7197 39160.0700
v 333.1532 801.7797 39160.0700
v 332.8684 801.5941 39160.0700
v 332.9625 801.6558 39160.0700
v 332.6809 801.4653 39160.0700
v 332.7739 801.5286 39160.0700
v 332.4957 801.3331 39160.0700
v 332.5875 801.3980 39160.0700
v 332.3128 801.1978 39160.0700
v 332.4035 801.2643 39160.0700
v 332.1323 801.0593 39160.0700
v 332.2218 801.1274 39160.0700
v 331.9542 800.9177 39160.0700
v 332.0425 800.9873 39160.0700
v 331.7787 800.7729 39160.0700
v 331.8658 800.8441 39160.0700
v 331.6057 800.6252 39160.0700
v 331.6915 800.6978 39160.0700
v 331.4353 800.4744 39160.0700
v 331.5198 800.5486 39160.0700
v 331.2675 800.3207 39160.0700
v 331.3508 800.3963 39160.0700
v 331.1025 800.1641 39160.0700
v 331.1844 800.2411 39160.0700
v 330.9402 800.0046 39160.0700
v 331.0208 800.0831 39160.0700
v 330.7807 799.8423 39160.0700
v 330.8599 799.9222 39160.0700
v 330.6241 799.6773 39160.0700
v 330.7019 799.7585 39160.0700
v 330.4704 799.5096 39160.0700
v 330.5468 799.5922 39160.0700
v 330.3196 799.3392 39160.0700
v 330.3945 799.4230 39160.0700
v 330.1719 799.1662 39160.0700
v 330.2453 799.2513 39160.0700
v 330.0272 798.9906 39160.0700
v 330.0991 799.0771 39160.0700
v 329.8855 798.8126 39160.0700
v 329.9559 798.9003 39160.0700
v 329.7470 798.6321 39160.0700
v 329.8159 798.7209 39160.0700
v 329.6117 798.4492 39160.0700
v 329.6790 798.5392 39160.0700
v 329.4796 798.2639 39160.0700
v 329.5453 798.3552 39160.0700
v 329.3507 798.0764 39160.0700
v 329.4148 798.1688 39160.0700
v 329.2251 797.8867 39160.0700
v 329.2876 797.9802 39160.0700
v 329.1029 797.6948 39160.0700
v 329.1637 797.7894 39160.0700
v 328.9840 797.5009 39160.0700
v 329.0432 797.5964 39160.0700
v 328.8685 797.3048 39160.0700
v 328.9260 797.4014 39160.0700
v 328.7565 797.1068 39160.0700
v 328.8123 797.2044 39160.0700
v 328.6479 796.9068 39160.0700
v 328.7020 797.0054 39160.0700
v 328.5429 796.7050 39160.0700
v 328.5952 796.8045 39160.0700
v 328.4414 796.5014 39160.0700
v 328.4920 796.6018 39160.0700
v 328.3434 796.2960 39160.0700
v 328.3923 796.3973 39160.0700
v 328.2491 796.0890 39160.0700
v 328.2961 796.1911 39160.0700
v 328.1584 795.8804 39160.0700
v 328.2036 795.9833 39160.0700
v 328.0713 795.6702 39160.0700
v 328.1148 795.7739 39160.0700
v 327.9879 795.4585 39160.0700
v 328.0296 795.5629 39160.0700
v 327.9082 795.2454 39160.0700
v 327.9481 795.3505 39160.0700
v 327.8323 795.0309 39160.0700
v 327.8703 795.1367 39160.0700
v 327.7601 794.8151 39160.0700
v 327.7962 794.9216 39160.0700
v 327.6917 794.5981 39160.0700
v 327.7260 794.7053 39160.0700
v 327.6270 794.3800 39160.0700
v 327.6595 794.4877 39160.0700
v 327.5662 794.1608 39160.0700
v 327.5968 794.2690 39160.0700
v 327.5093 793.9405 39160.0700
v 327.5379 794.0492 39160.0700
v 327.4561 793.7192 39160.0700
v 327.4829 793.8285 39160.0700
v 327.4069 793.4971 39160.0700
v 327.4317 793.6068 39160.0700
v 327.3615 793.2742 39160.0700
v 327.3845 793.3843 39160.0700
v 327.3201 793.0505 39160.0700
v 327.3411 793.1609 39160.0700
v 327.2825 792.8260 39160.0700
v 327.3016 792.9369 39160.0700
v 327.2489 792.6010 39160.0700
v 327.2660 792.7122 39160.0700
v 327.2192 792.3755 39160.0700
v 327.2344 792.4869 39160.0700
v 327.1935 792.1494 39160.0700
v 327.2067 792.2611 39160.0700
v 327.1717 791.9229 39160.0700
v 327.1829 792.0349 39160.0700
v 327.1538 791.6961 39160.0700
v 327.1631 791.8082 39160.0700
v 327.1399 791.4691 39160.0700
v 327.1473 791.5812 39160.0700
v 327.1300 791.2418 39160.0700
v 327.1354 791.3541 39160.0700
v 327.1240 791.0143 39160.0700
v 327.1275 791.1267 39160.0700
v 327.1220 790.7868 39160.0700
v 327.1235 790.8992 39160.0700
v 327.1240 790.5593 39160.0700
v 327.1235 790.6717 39160.0700
v 327.1300 790.3318 39160.0700
v 327.1275 790.4443 39160.0700
v 327.1399 790.1046 39160.0700
v 327.1355 790.2169 39160.0700
v 327.1538 789.8774 39160.0700
v 327.1474 789.9897 39160.0700
v 327.1717 789.6506 39160.0700
v 327.1633 789.7628 39160.0700
v 327.1935 789.4241 39160.0700
v 327.1832 789.5361 39160.0700
v 327.2192 789.1981 39160.0700
v 327.2070 789.3099 39160.0700
v 327.2489 788.9725 39160.0700
v 327.2347 789.0840 39160.0700
v 327.2825 788.7475 39160.0700
v 327.2664 788.8588 39160.0700
v 327.3201 788.5231 39160.0700
v 327.3020 788.6341 39160.0700
v 327.3615 788.2994 39160.0700
v 327.3416 788.4100 39160.0700
v 327.4069 788.0764 39160.0700
v 327.3850 788.1867 39160.0700
v 327.4561 787.8543 39160.0700
v 327.4323 787.9642 39160.0700
v 327.5093 787.6331 39160.0700
v 327.4835 787.7426 39160.0700
v 327.5662 787.4128 39160.0700
v 327.5386 787.5218 39160.0700
v 327.6270 787.1935 39160.0700
v 327.5975 787.3021 39160.0700
v 327.6917 786.9754 39160.0700
v 327.6602 787.0834 39160.0700
v 327.7601 786.7584 39160.0700
v 327.7267 786.8658 39160.0700
v 327.8323 786.5427 39160.0700
v 327.7971 786.6495 39160.0700
v 327.9082 786.3282 39160.0700
v 327.8712 786.4344 39160.0700
v 327.9879 786.1151 39160.0700
v 327.9490 786.2206 39160.0700
v 328.0713 785.9034 39160.0700
v 328.0305 786.0082 39160.0700
v 328.1584 785.6932 39160.0700
v 328.1158 785.7973 39160.0700
v 328.2491 785.4846 39160.0700
v 328.2047 785.5879 39160.0700
v 328.3434 785.2775 39160.0700
v 328.2972 785.3801 39160.0700
v 328.4414 785.0721 39160.0700
v 328.3934 785.1739 39160.0700
v 328.5429 784.8685 39160.0700
v 328.4932 784.9694 39160.0700
v 328.6479 784.6667 39160.0700
v 328.5965 784.7667 39160.0700
v 328.7565 784.4668 39160.0700
v 328.7033 784.5659 39160.0700
v 328.8685 784.2688 39160.0700
v 328.8136 784.3669 39160.0700
v 328.9840 784.0728 39160.0700
v 328.9274 784.1699 39160.0700
v 329.1029 783.8787 39160.0700
v 329.0446 783.9749 39160.0700
v 329.2251 783.6868 39160.0700
v 329.1651 783.7820 39160.0700
v 329.3507 783.4971 39160.0700
v 329.2891 783.5912 39160.0700
v 329.4796 783.3096 39160.0700
v 329.4163 783.4026 39160.0700
v 329.6117 783.1244 39160.0700
v 329.5468 783.2162 39160.0700
v 329.7470 782.9415 39160.0700
v 329.6805 783.0322 39160.0700
v 329.8855 782.7610 39160.0700
v 329.8175 782.8505 39160.0700
v 330.0272 782.5829 39160.0700
v 329.9576 782.6713 39160.0700
v 330.1719 782.4074 39160.0700
v 330.1007 782.4944 39160.0700
v 330.3196 782.2344 39160.0700
v 330.2470 782.3202 39160.0700
v 330.4704 782.0640 39160.0700
v 330.3963 782.1485 39160.0700
v 330.6241 781.8962 39160.0700
v 330.5485 781.9795 39160.0700
v 330.7807 781.7312 39160.0700
v 330.7037 781.8131 39160.0700
v 330.9402 781.5689 39160.0700
v 330.8618 781.6495 39160.0700
v 331.1025 781.4094 39160.0700
v 331.0226 781.4886 39160.0700
v 331.2675 781.2529 39160.0700
v 331.1863 781.3306 39160.0700
v 331.4353 781.0991 39160.0700
v 331.3527 781.1755 39160.0700
v 331.6057 780.9484 39160.0700
v 331.5218 781.0233 39160.0700
v 331.7787 780.8006 39160.0700
v 331.6935 780.8740 39160.0700
v 331.9542 780.6559 39160.0700
v 331.8678 780.7278 39160.0700
v 332.1323 780.5143 39160.0700
v 332.0446 780.5847 39160.0700
v 332.3128 780.3757 39160.0700
v 332.2239 780.4446 39160.0700
v 332.4957 780.2404 39160.0700
v 332.4056 780.3077 39160.0700
v 332.6809 780.1083 39160.0700
v 332.5897 780.1740 39160.0700
v 332.8684 779.9794 39160.0700
v 332.7760 780.0435 39160.0700
v 333.0581 779.8539 39160.0700
v 332.9647 779.9163 39160.0700
v 333.2500 779.7316 39160.0700
v 333.1555 779.7924 39160.0700
v 333.4440 779.6127 39160.0700
v 333.3484 779.6719 39160.0700
v 333.6400 779.4973 39160.0700
v 333.5434 779.5547 39160.0700
v 333.8381 779.3852 39160.0700
v 333.7404 779.4410 39160.0700
v 334.0380 779.2767 39160.0700
v 333.9395 779.3307 39160.0700
v 334.2398 779.1716 39160.0700
v 334.1403 779.2239 39160.0700
v 334.4435 779.0701 39160.0700
v 334.3430 779.1207 39160.0700
v 334.6488 778.9721 39160.0700
v 334.5475 779.0210 39160.0700
v 334.8558 778.8778 39160.0700
v 334.7537 778.9249 39160.0700
v 335.0645 778.7870 39160.0700
v 334.9616 778.8323 39160.0700
v 335.2747 778.7000 39160.0700
v 335.1710 778.7435 39160.0700
v 335.4864 778.6166 39160.0700
v 335.3819 778.6583 39160.0700
v 335.6995 778.5369 39160.0700
v 335.5943 778.5768 39160.0700
v 335.9139 778.4610 39160.0700
v 335.8081 778.4990 39160.0700
v 336.1297 778.3888 39160.0700
v 336.0232 778.4249 39160.0700
v 336.3467 778.3204 39160.0700
v 336.2396 778.3547 39160.0700
v 336.5648 778.2557 39160.0700
v 336.4572 778.2881 39160.0700
v 336.7841 778.1949 39160.0700
v 336.6759 778.2255 39160.0700
v 337.0044 778.1380 39160.0700
v 336.8956 778.1666 39160.0700
v 337.2256 778.0849 39160.0700
v 337.1164 778.1116 39160.0700
v 337.4477 778.0356 39160.0700
v 337.3380 778.0604 39160.0700
v 337.6707 777.9903 39160.0700
v 337.5606 778.0132 39160.0700
v 337.8944 777.9488 39160.0700
v 337.7839 777.9698 39160.0700
v 338.1188 777.9113 39160.0700
v 338.0080 777.9303 39160.0700
v 338.3438 777.8776 39160.0700
v 338.2327 777.8947 39160.0700
v 338.5694 777.8479 39160.0700
v 338.4579 777.8631 39160.0700
v 338.7954 777.8222 39160.0700
v 338.6838 777.8354 39160.0700
v 339.0219 777.8004 39160.0700
v 338.9100 777.8116 39160.0700
v 339.2487 777.7825 39160.0700
v 339.1367 777.7918 39160.0700
v 339.4758 777.7686 39160.0700
v 339.3636 777.7760 39160.0700
v 339.7031 777.7587 39160.0700
v 339.5908 777.7641 39160.0700
v 339.9305 777.7527 39160.0700
v 339.8181 777.7562 39160.0700
v 340.1581 777.7507 39160.0700
v 340.0456 777.7523 39160.0700
v 340.3856 777.7527 39160.0700
v 340.2731 777.7523 39160.0700
v 340.6130 777.7587 39160.0700
v 340.5006 777.7563 39160.0700
v 340.8403 777.7686 39160.0700
v 340.7280 777.7642 39160.0700
v 341.0674 777.7825 39160.0700
v 340.9551 777.7761 39160.0700
v 341.2942 777.8004 39160.0700
v 341.1821 777.7921 39160.0700
v 341.5207 777.8222 39160.0700
v 341.4087 777.8119 39160.0700
v 341.7468 777.8479 39160.0700
v 341.6350 777.8357 39160.0700
v 341.9723 777.8776 39160.0700
v 341.8608 777.8635 39160.0700
v 342.1974 777.9113 39160.0700
v 342.0861 777.8951 39160.0700
v 342.4218 777.9488 39160.0700
v 342.3108 777.9307 39160.0700
v 342.6454 777.9903 39160.0700
v 342.5348 777.9703 39160.0700
v 342.8684 778.0356 39160.0700
v 342.7581 778.0137 39160.0700
v 343.0905 778.0849 39160.0700
v 342.9807 778.0610 39160.0700
v 343.3118 778.1380 39160.0700
v 343.2023 778.1122 39160.0700
v 343.5320 778.1949 39160.0700
v 343.4230 778.1673 39160.0700
v 343.7513 778.2557 39160.0700
v 343.6428 778.2262 39160.0700
v 343.9694 778.3204 39160.0700
v 343.8615 778.2889 39160.0700
v 344.1864 778.3888 39160.0700
v 344.0790 778.3555 39160.0700
v 344.4022 778.4610 39160.0700
v 344.2954 778.4258 39160.0700
v 344.6166 778.5369 39160.0700
v 344.5105 778.4999 39160.0700
v 344.8297 778.6166 39160.0700
v 344.7242 778.5777 39160.0700
v 345.0414 778.7000 39160.0700
v 344.9366 778.6592 39160.0700
v 345.2516 778.7870 39160.0700
v 345.1476 778.7445 39160.0700
v 345.4603 778.8778 39160.0700
v 345.3570 778.8334 39160.0700
v 345.6673 778.9721 39160.0700
v 345.5648 778.9260 39160.0700
v 345.8727 779.0701 39160.0700
v 345.7710 779.0221 39160.0700
v 346.0763 779.1716 39160.0700
v 345.9754 779.1219 39160.0700
v 346.2781 779.2767 39160.0700
v 346.1781 779.2252 39160.0700
v 346.4781 779.3852 39160.0700
v 346.3790 779.3320 39160.0700
v 346.6761 779.4973 39160.0700
v 346.5780 779.4423 39160.0700
v 346.8721 779.6127 39160.0700
v 346.7750 779.5561 39160.0700
v 347.0661 779.7316 39160.0700
v 346.9700 779.6733 39160.0700
v 347.2580 779.8539 39160.0700
v 347.1629 779.7939 39160.0700
v 347.4477 779.9794 39160.0700
v 347.3537 779.9178 39160.0700
v 347.6352 780.1083 39160.0700
v 347.5423 780.0450 39160.0700
v 347.8204 780.2404 39160.0700
v 347.7286 780.1755 39160.0700
v 348.0033 780.3757 39160.0700
v 347.9127 780.3093 39160.0700
v 348.1838 780.5143 39160.0700
v 348.0943 780.4462 39160.0700
v 348.3619 780.6559 39160.0700
v 348.2736 780.5863 39160.0700
v 348.5374 780.8006 39160.0700
v 348.4504 780.7295 39160.0700
v 348.7104 780.9484 39160.0700
v 348.6246 780.8757 39160.0700
v 348.8809 781.0991 39160.0700
v 348.7963 781.0250 39160.0700
v 349.0486 781.2529 39160.0700
v 348.9654 781.1772 39160.0700
v 349.2137 781.4094 39160.0700
v 349.1317 781.3324 39160.0700
v 349.3759 781.5689 39160.0700
v 349.2954 781.4905 39160.0700
v 349.5354 781.7312 39160.0700
v 349.4562 781.6514 39160.0700
v 349.6920 781.8962 39160.0700
v 349.6142 781.8150 39160.0700
v 349.8457 782.0640 39160.0700
v 349.7694 781.9814 39160.0700
v 349.9965 782.2344 39160.0700
v 349.9216 782.1505 39160.0700
v 350.1442 782.4074 39160.0700
v 350.0708 782.3222 39160.0700
v 350.2889 782.5829 39160.0700
v 350.2170 782.4965 39160.0700
v 350.4306 782.7610 39160.0700
v 350.3602 782.6733 39160.0700
v 350.5691 782.9415 39160.0700
v 350.5002 782.8526 39160.0700
v 350.7044 783.1244 39160.0700
v 350.6371 783.0343 39160.0700
v 350.8365 783.3096 39160.0700
v 350.7708 783.2184 39160.0700
v 350.9654 783.4971 39160.0700
v 350.9013 783.4047 39160.0700
v 351.0910 783.6868 39160.0700
v 351.0285 783.5934 39160.0700
v 351.2132 783.8787 39160.0700
v 351.1524 783.7842 39160.0700
v 351.3321 784.0728 39160.0700
v 351.2729 783.9771 39160.0700
v 351.4476 784.2688 39160.0700
v 351.3901 784.1721 39160.0700
v 351.5596 784.4668 39160.0700
v 351.5038 784.3691 39160.0700
v 351.6682 784.6667 39160.0700
v 351.6141 784.5682 39160.0700
v 351.7733 784.8685 39160.0700
v 351.7209 784.7690 39160.0700
v 351.8748 785.0721 39160.0700
v 351.8241 784.9717 39160.0700
v 351.9727 785.2775 39160.0700
v 351.9239 785.1763 39160.0700
v 352.0670 785.4846 39160.0700
v 352.0200 785.3824 39160.0700
v 352.1578 785.6932 39160.0700
v 352.1125 785.5903 39160.0700
v 352.2448 785.9034 39160.0700
v 352.2014 785.7997 39160.0700
v 352.3282 786.1151 39160.0700
v 352.2866 786.0106 39160.0700
v 352.4079 786.3282 39160.0700
v 352.3681 786.2230 39160.0700
v 352.4839 786.5427 39160.0700
v 352.4459 786.4368 39160.0700
v 352.5561 786.7584 39160.0700
v 352.5199 786.6520 39160.0700
v 352.6245 786.9754 39160.0700
v 352.5902 786.8683 39160.0700
v 352.6891 787.1935 39160.0700
v 352.6567 787.0859 39160.0700
v 352.7499 787.4128 39160.0700
v 352.7194 787.3046 39160.0700
v 352.8069 787.6331 39160.0700
v 352.7782 787.5244 39160.0700
v 352.8600 787.8543 39160.0700
v 352.8332 787.7451 39160.0700
v 352.9092 788.0764 39160.0700
v 352.8844 787.9668 39160.0700
v 352.9546 788.2994 39160.0700
v 352.9317 788.1893 39160.0700
v 352.9960 788.5231 39160.0700
v 352.9751 788.4126 39160.0700
v 353.0336 788.7475 39160.0700
v 353.0145 788.6367 39160.0700
v 353.0672 788.9725 39160.0700
v 353.0501 788.8614 39160.0700
v 353.0969 789.1981 39160.0700
v 353.0818 789.0867 39160.0700
v 353.1227 789.4241 39160.0700
v 353.1094 789.3125 39160.0700
v 353.1445 789.6506 39160.0700
v 353.1332 789.5388 39160.0700
v 353.1623 789.8774 39160.0700
v 353.1530 789.7654 39160.0700
v 353.1762 790.1046 39160.0700
v 353.1689 789.9923 39160.0700
v 353.1861 790.3318 39160.0700
v 353.1807 790.2195 39160.0700
v 353.1921 790.5593 39160.0700
v 353.1887 790.4469 39160.0700
v 353.1926 790.6743 39160.0700
v 353.1941 790.7868 39266.0200
v 349.3357 790.8933 39266.0200
v 340.1012 790.9374 39266.0200
v 330.9000 790.8933 39266.0200
v 327.1220 790.7868 39266.0200
v 330.9804 790.6802 39266.0200
v 340.2149 790.6361 39266.0200
v 349.4161 790.6802 39266.0200
v 666.0585 1116.6870 39160.0700
v 666.0585 1116.6870 39368.6400
v 666.0585 1116.6870 39266.0200
v 666.0585 464.8864 39368.6400
v 665.5585 794.5533 39368.6400
v 666.0585 464.8864 39160.0700
v 666.0585 464.8864 39266.0200
v 666.5585 787.0203 39160.0700
v 14.2576 1116.6870 39160.0700
v 14.2576 1116.6870 39368.6400
v 14.2576 1116.6870 39266.0200
v 336.3915 1116.1870 39368.6400
v 343.9246 1117.1870 39160.0700
v 14.2576 464.8864 39160.0700
v 14.2576 464.8864 39368.6400
v 14.2576 464.8864 39266.0200
v 14.7576 787.0203 39368.6400
v 13.7576 794.5533 39160.0700
v 343.9246 465.3864 39368.6400
v 336.3915 464.3864 39160.0700

o Shape_0
usemtl material_1
f 1 2 3
f 2 4 5
f 4 6 7
f 6 8 9
f 8 10 11
f 10 12 13
f 12 14 15
f 14 16 17
f 16 18 19
f 18 20 21
f 20 22 23
f 22 24 25
f 24 26 27
f 26 28 29
f 28 30 31
f 30 32 33
f 32 34 35
f 34 36 37
f 36 38 39
f 38 40 41
f 40 42 43
f 42 44 45
f 44 46 47
f 46 48 49
f 48 50 51
f 50 52 53
f 52 54 55
f 54 56 57
f 56 58 59
f 58 60 61
f 60 62 63
f 62 64 65
f 64 66 67
f 66 68 69
f 68 70 71
f 70 72 73
f 72 74 75
f 74 76 77
f 76 78 79
f 78 80 81
f 80 82 83
f 82 84 85
f 84 86 87
f 86 88 89
f 88 90 91
f 90 92 93
f 92 94 95
f 94 96 97
f 96 98 99
f 98 100 101
f 100 102 103
f 102 104 105
f 104 106 107
f 106 108 109
f 108 110 111
f 110 112 113
f 112 114 115
f 114 116 117
f 116 118 119
f 118 120 121
f 120 122 123
f 122 124 125
f 124 126 127
f 126 128 129
f 128 130 131
f 130 132 133
f 132 134 135
f 134 136 137
f 136 138 139
f 138 140 141
f 140 142 143
f 142 144 145
f 144 146 147
f 146 148 149
f 148 150 151
f 150 152 153
f 152 154 155
f 154 156 157
f 156 158 159
f 158 160 161
f 160 162 163
f 162 164 165
f 164 166 167
f 166 168 169
f 168 170 171
f 170 172 173
f 172 174 175
f 174 176 177
f 176 178 179
f 178 180 181
f 180 182 183
f 182 184 185
f 184 186 187
f 186 188 189
f 188 190 191
f 190 192 193
f 192 194 195
f 194 196 197
f 196 198 199
f 198 200 201
f 200 202 203
f 202 204 205
f 204 206 207
f 206 208 209
f 208 210 211
f 210 212 213
f 212 214 215
f 214 216 217
f 216 218 219
f 218 220 221
f 220 222 223
f 222 224 225
f 224 226 227
f 226 228 229
f 228 230 231
f 230 232 233
f 232 234 235
f 234 236 237
f 236 238 239
f 238 240 241
f 240 242 243
f 242 244 245
f 244 246 247
f 246 248 249
f 248 250 251
f 250 252 253
f 252 254 255
f 254 256 257
f 256 258 259
f 258 260 261
f 260 262 263
f 262 264 265
f 264 266 267
f 266 268 269
f 268 270 271
f 270 272 273
f 272 274 275
f 274 276 277
f 276 278 279
f 278 280 281
f 280 282 283
f 282 284 285
f 284 286 287
f 286 288 289
f 288 290 291
f 290 292 293
f 292 294 295
f 294 296 297
f 296 298 299
f 298 300 301
f 300 302 303
f 302 304 305
f 304 306 307
f 306 308 309
f 308 310 311
f 310 312 313
f 312 314 315
f 314 316 317
f 316 318 319
f 318 320 321
f 320 322 323
f 322 324 325
f 324 326 327
f 326 328 329
f 328 330 331
f 330 332 333
f 332 334 335
f 334 336 337
f 336 338 339
f 338 340 341
f 340 342 343
f 342 344 345
f 344 346 347
f 346 348 349
f 348 350 351
f 350 352 353
f 352 354 355
f 354 356 357
f 356 358 359
f 358 360 361
f 360 362 363
f 362 364 365
f 364 366 367
f 366 368 369
f 368 370 371
f 370 372 373
f 372 374 375
f 374 376 377
f 376 378 379
f 378 380 381
f 380 382 383
f 382 384 385
f 384 386 387
f 386 388 389
f 388 390 391
f 390 392 393
f 392 394 395
f 394 396 397
f 396 398 399
f 398 400 401
f 400 402 403
f 402 404 405
f 404 406 407
f 406 408 409
f 408 410 411
f 410 412 413
f 412 414 415
f 414 416 417
f 416 418 419
f 418 420 421
f 420 422 423
f 422 424 425
f 424 426 427
f 426 428 429
f 428 430 431
f 430 432 433
f 432 434 435
f 434 436 437
f 436 438 439
f 438 440 441
f 440 442 443
f 442 444 445
f 444 446 447
f 446 448 449
f 448 450 451
f 450 452 453
f 452 454 455
f 454 456 457
f 456 458 459
f 458 460 461
f 460 462 463
f 462 464 465
f 464 466 467
f 466 468 469
f 468 470 471
f 470 472 473
f 472 474 475
f 474 476 477
f 476 478 479
f 478 480 481
f 480 482 483
f 482 484 485
f 484 486 487
f 486 488 489
f 488 490 491
f 490 492 493
f 492 494 495
f 494 496 497
f 496 498 499
f 498 500 501
f 500 502 503
f 502 504 505
f 504 506 507
f 506 508 509
f 508 510 511
f 510 512 513
f 512 514 515
f 514 516 517
f 516 518 519
f 518 520 521
f 520 522 523
f 522 524 525
f 524 526 527
f 526 528 529
f 528 530 531
f 530 532 533
f 532 534 535
f 534 536 537
f 536 538 539
f 538 540 541
f 540 542 543
f 542 544 545
f 544 546 547
f 546 548 549
f 548 550 551
f 550 552 553
f 552 554 555
f 554 556 557
f 556 558 559
f 558 560 561
f 560 562 563
f 562 564 565
f 564 566 567
f 566 568 569
f 568 570 571
f 570 572 573
f 572 574 575
f 574 576 577
f 576 578 579
f 578 580 581
f 580 582 583
f 582 584 585
f 584 586 587
f 586 588 589
f 588 590 591
f 590 592 593
f 592 594 595
f 594 596 597
f 596 598 599
f 598 600 601
f 600 602 603
f 602 604 605
f 604 606 607
f 606 608 609
f 608 610 611
f 610 612 613
f 612 614 615
f 614 616 617
f 616 618 619
f 618 620 621
f 620 622 623
f 622 624 625
f 624 626 627
f 626 628 629
f 628 630 631
f 630 632 633
f 632 634 635
f 634 636 637
f 636 638 639
f 638 640 641
f 640 642 643
f 642 644 645
f 644 646 647
f 646 648 649
f 648 650 651
f 650 652 653
f 652 654 655
f 654 656 657
f 656 658 659
f 658 660 661
f 660 662 663
f 662 664 665
f 664 666 667
f 666 668 669
f 668 670 671
f 670 672 673
f 672 674 675
f 674 676 677
f 676 678 679
f 678 680 681
f 680 682 683
f 682 684 685
f 684 686 687
f 686 688 689
f 688 690 691
f 690 692 693
f 692 694 695
f 694 696 697
f 696 698 699
f 698 700 701
f 700 702 703
f 702 704 705
f 704 706 707
f 706 708 709
f 708 710 711
f 710 712 713
f 712 714 715
f 714 716 717
f 716 718 719
f 718 1 720

o Shape_1
usemtl material_1
f 721 722 723
f 722 724 725
f 724 726 727
f 726 728 729
f 728 730 731
f 730 732 733
f 732 734 735
f 734 736 737
f 736 738 739
f 738 740 741
f 740 742 743
f 742 744 745
f 744 746 747
f 746 748 749
f 748 750 751
f 750 752 753
f 752 754 755
f 754 756 757
f 756 758 759
f 758 760 761
f 760 762 763
f 762 764 765
f 764 766 767
f 766 768 769
f 768 770 771
f 770 772 773
f 772 774 775
f 774 776 777
f 776 778 779
f 778 780 781
f 780 782 783
f 782 784 785
f 784 786 787
f 786 788 789
f 788 790 791
f 790 792 793
f 792 794 795
f 794 796 797
f 796 798 799
f 798 800 801
f 800 802 803
f 802 804 805
f 804 806 807
f 806 808 809
f 808 810 811
f 810 812 813
f 812 814 815
f 814 816 817
f 816 818 819
f 818 820 821
f 820 822 823
f 822 824 825
f 824 826 827
f 826 828 829
f 828 830 831
f 830 832 833
f 832 834 835
f 834 836 837
f 836 838 839
f 838 840 841
f 840 842 843
f 842 844 845
f 844 846 847
f 846 848 849
f 848 850 851
f 850 852 853
f 852 854 855
f 854 856 857
f 856 858 859
f 858 860 861
f 860 862 863
f 862 864 865
f 864 866 867
f 866 868 869
f 868 870 871
f 870 872 873
f 872 874 875
f 874 876 877
f 876 878 879
f 878 880 881
f 880 882 883
f 882 884 885
f 884 886 887
f 886 888 889
f 888 890 891
f 890 892 893
f 892 894 895
f 894 896 897
f 896 898 899
f 898 900 901
f 900 902 903
f 902 904 905
f 904 906 907
f 906 908 909
f 908 910 911
f 910 912 913
f 912 914 915
f 914 916 917
f 916 918 919
f 918 920 921
f 920 922 923
f 922 924 925
f 924 926 927
f 926 928 929
f 928 930 931
f 930 932 933
f 932 934 935
f 934 936 937
f 936 938 939
f 938 940 941
f 940 942 943
f 942 944 945
f 944 946 947
f 946 948 949
f 948 950 951
f 950 952 953
f 952 954 955
f 954 956 957
f 956 958 959
f 958 960 961
f 960 962 963
f 962 964 965
f 964 966 967
f 966 968 969
f 968 970 971
f 970 972 973
f 972 974 975
f 974 976 977
f 976 978 979
f 978 980 981
f 980 982 983
f 982 984 985
f 984 986 987
f 986 988 989
f 988 990 991
f 990 992 993
f 992 994 995
f 994 996 997
f 996 998 999
f 998 1000 1001
f 1000 1002 1003
f 1002 1004 1005
f 1004 1006 1007
f 1006 1008 1009
f 1008 1010 1011
f 1010 1012 1013
f 1012 1014 1015
f 1014 1016 1017
f 1016 1018 1019
f 1018 1020 1021
f 1020 1022 1023
f 1022 1024 1025
f 1024 1026 1027
f 1026 1028 1029
f 1028 1030 1031
f 1030 1032 1033
f 1032 1034 1035
f 1034 1036 1037
f 1036 1038 1039
f 1038 1040 1041
f 1040 1042 1043
f 1042 1044 1045
f 1044 1046 1047
f 1046 1048 1049
f 1048 1050 1051
f 1050 1052 1053
f 1052 1054 1055
f 1054 1056 1057
f 1056 1058 1059
f 1058 1060 1061
f 1060 1062 1063
f 1062 1064 1065
f 1064 1066 1067
f 1066 1068 1069
f 1068 1070 1071
f 1070 1072 1073
f 1072 1074 1075
f 1074 1076 1077
f 1076 1078 1079
f 1078 1080 1081
f 1080 1082 1083
f 1082 1084 1085
f 1084 1086 1087
f 1086 1088 1089
f 1088 1090 1091
f 1090 1092 1093
f 1092 1094 1095
f 1094 1096 1097
f 1096 1098 1099
f 1098 1100 1101
f 1100 1102 1103
f 1102 1104 1105
f 1104 1106 1107
f 1106 1108 1109
f 1108 1110 1111
f 1110 1112 1113
f 1112 1114 1115
f 1114 1116 1117
f 1116 1118 1119
f 1118 1120 1121
f 1120 1122 1123
f 1122 1124 1125
f 1124 1126 1127
f 1126 1128 1129
f 1128 1130 1131
f 1130 1132 1133
f 1132 1134 1135
f 1134 1136 1137
f 1136 1138 1139
f 1138 1140 1141
f 1140 1142 1143
f 1142 1144 1145
f 1144 1146 1147
f 1146 1148 1149
f 1148 1150 1151
f 1150 1152 1153
f 1152 1154 1155
f 1154 1156 1157
f 1156 1158 1159
f 1158 1160 1161
f 1160 1162 1163
f 1162 1164 1165
f 1164 1166 1167
f 1166 1168 1169
f 1168 1170 1171
f 1170 1172 1173
f 1172 1174 1175
f 1174 1176 1177
f 1176 1178 1179
f 1178 1180 1181
f 1180 1182 1183
f 1182 1184 1185
f 1184 1186 1187
f 1186 1188 1189
f 1188 1190 1191
f 1190 1192 1193
f 1192 1194 1195
f 1194 1196 1197
f 1196 1198 1199
f 1198 1200 1201
f 1200 1202 1203
f 1202 1204 1205
f 1204 1206 1207
f 1206 1208 1209
f 1208 1210 1211
f 1210 1212 1213
f 1212 1214 1215
f 1214 1216 1217
f 1216 1218 1219
f 1218 1220 1221
f 1220 1222 1223
f 1222 1224 1225
f 1224 1226 1227
f 1226 1228 1229
f 1228 1230 1231
f 1230 1232 1233
f 1232 1234 1235
f 1234 1236 1237
f 1236 1238 1239
f 1238 1240 1241
f 1240 1242 1243
f 1242 1244 1245
f 1244 1246 1247
f 1246 1248 1249
f 1248 1250 1251
f 1250 1252 1253
f 1252 1254 1255
f 1254 1256 1257
f 1256 1258 1259
f 1258 1260 1261
f 1260 1262 1263
f 1262 1264 1265
f 1264 1266 1267
f 1266 1268 1269
f 1268 1270 1271
f 1270 1272 1273
f 1272 1274 1275
f 1274 1276 1277
f 1276 1278 1279
f 1278 1280 1281
f 1280 1282 1283
f 1282 1284 1285
f 1284 1286 1287
f 1286 1288 1289
f 1288 1290 1291
f 1290 1292 1293
f 1292 1294 1295
f 1294 1296 1297
f 1296 1298 1299
f 1298 1300 1301
f 1300 1302 1303
f 1302 1304 1305
f 1304 1306 1307
f 1306 1308 1309
f 1308 1310 1311
f 1310 1312 1313
f 1312 1314 1315
f 1314 1316 1317
f 1316 1318 1319
f 1318 1320 1321
f 1320 1322 1323
f 1322 1324 1325
f 1324 1326 1327
f 1326 1328 1329
f 1328 1330 1331
f 1330 1332 1333
f 1332 1334 1335
f 1334 1336 1337
f 1336 1338 1339
f 1338 1340 1341
f 1340 1342 1343
f 1342 1344 1345
f 1344 1346 1347
f 1346 1348 1349
f 1348 1350 1351
f 1350 1352 1353
f 1352 1354 1355
f 1354 1356 1357
f 1356 1358 1359
f 1358 1360 1361
f 1360 1362 1363
f 1362 1364 1365
f 1364 1366 1367
f 1366 1368 1369
f 1368 1370 1371
f 1370 1372 1373
f 1372 1374 1375
f 1374 1376 1377
f 1376 1378 1379
f 1378 1380 1381
f 1380 1382 1383
f 1382 1384 1385
f 1384 1386 1387
f 1386 1388 1389
f 1388 1390 1391
f 1390 1392 1393
f 1392 1394 1395
f 1394 1396 1397
f 1396 1398 1399
f 1398 1400 1401
f 1400 1402 1403
f 1402 1404 1405
f 1404 1406 1407
f 1406 1408 1409
f 1408 1410 1411
f 1410 1412 1413
f 1412 1414 1415
f 1414 1416 1417
f 1416 1418 1419
f 1418 1420 1421
f 1420 1422 1423
f 1422 1424 1425
f 1424 1426 1427
f 1426 1428 1429
f 1428 1430 1431
f 1430 1432 1433
f 1432 1434 1435
f 1434 1436 1437
f 1436 1438 1439
f 1438 721 1440

o Shape_2
usemtl material_1
f 1 2 3
f 2 4 5
f 4 6 7
f 6 8 9
f 8 10 11
f 10 12 13
f 12 14 15
f 14 16 17
f 16 18 19
f 18 20 21
f 20 22 23
f 22 24 25
f 24 26 27
f 26 28 29
f 28 30 31
f 30 32 33
f 32 34 35
f 34 36 37
f 36 38 39
f 38 40 41
f 40 42 43
f 42 44 45
f 44 46 47
f 46 48 49
f 48 50 51
f 50 52 53
f 52 54 55
f 54 56 57
f 56 58 59
f 58 60 61
f 60 62 63
f 62 64 65
f 64 66 67
f 66 68 69
f 68 70 71
f 70 72 73
f 72 74 75
f 74 76 77
f 76 78 79
f 78 80 81
f 80 82 83
f 82 84 85
f 84 86 87
f 86 88 89
f 88 90 91
f 90 92 93
f 92 94 95
f 94 96 97
f 96 98 99
f 98 100 101
f 100 102 103
f 102 104 105
f 104 106 107
f 106 108 109
f 108 110 111
f 110 112 113
f 112 114 115
f 114 116 117
f 116 118 119
f 118 120 121
f 120 122 123
f 122 124 125
f 124 126 127
f 126 128 129
f 128 130 131
f 130 132 133
f 132 134 135
f 134 136 137
f 136 138 139
f 138 140 141
f 140 142 143
f 142 144 145
f 144 146 147
f 146 148 149
f 148 150 151
f 150 152 153
f 152 154 155
f 154 156 157
f 156 158 159
f 158 160 161
f 160 162 163
f 162 164 165
f 164 166 167
f 166 168 169
f 168 170 171
f 170 172 173
f 172 174 175
f 174 176 177
f 176 178 179
f 178 180 181
f 180 182 183
f 182 184 185
f 184 186 187
f 186 188 189
f 188 190 191
f 190 192 193
f 192 194 195
f 194 196 197
f 196 198 199
f 198 200 201
f 200 202 203
f 202 204 205
f 204 206 207
f 206 208 209
f 208 210 211
f 210 212 213
f 212 214 215
f 214 216 217
f 216 218 219
f 218 220 221
f 220 222 223
f 222 224 225
f 224 226 227
f 226 228 229
f 228 230 231
f 230 232 233
f 232 234 235
f 234 236 237
f 236 238 239
f 238 240 241
f 240 242 243
f 242 244 245
f 244 246 247
f 246 248 249
f 248 250 251
f 250 252 253
f 252 254 255
f 254 256 257
f 256 258 259
f 258 260 261
f 260 262 263
f 262 264 265
f 264 266 267
f 266 268 269
f 268 270 271
f 270 272 273
f 272 274 275
f 274 276 277
f 276 278 279
f 278 280 281
f 280 282 283
f 282 284 285
f 284 286 287
f 286 288 289
f 288 290 291
f 290 292 293
f 292 294 295
f 294 296 297
f 296 298 299
f 298 300 301
f 300 302 303
f 302 304 305
f 304 306 307
f 306 308 309
f 308 310 311
f 310 312 313
f 312 314 315
f 314 316 317
f 316 318 319
f 318 320 321
f 320 322 323
f 322 324 325
f 324 326 327
f 326 328 329
f 328 330 331
f 330 332 333
f 332 334 335
f 334 336 337
f 336 338 339
f 338 340 341
f 340 342 343
f 342 344 345
f 344 346 347
f 346 348 349
f 348 350 351
f 350 352 353
f 352 354 355
f 354 356 357
f 356 358 359
f 358 360 361
f 360 362 363
f 362 364 365
f 364 366 367
f 366 368 369
f 368 370 371
f 370 372 373
f 372 374 375
f 374 376 377
f 376 378 379
f 378 380 381
f 380 382 383
f 382 384 385
f 384 386 387
f 386 388 389
f 388 390 391
f 390 392 393
f 392 394 395
f 394 396 397
f 396 398 399
f 398 400 401
f 400 402 403
f 402 404 405
f 404 406 407
f 406 408 409
f 408 410 411
f 410 412 413
f 412 414 415
f 414 416 417
f 416 418 419
f 418 420 421
f 420 422 423
f 422 424 425
f 424 426 427
f 426 428 429
f 428 430 431
f 430 432 433
f 432 434 435
f 434 436 437
f 436 438 439
f 438 440 441
f 440 442 443
f 442 444 445
f 444 446 447
f 446 448 449
f 448 450 451
f 450 452 453
f 452 454 455
f 454 456 457
f 456 458 459
f 458 460 461
f 460 462 463
f 462 464 465
f 464 466 467
f 466 468 469
f 468 470 471
f 470 472 473
f 472 474 475
f 474 476 477
f 476 478 479
f 478 480 481
f 480 482 483
f 482 484 485
f 484 486 487
f 486 488 489
f 488 490 491
f 490 492 493
f 492 494 495
f 494 496 497
f 496 498 499
f 498 500 501
f 500 502 503
f 502 504 505
f 504 506 507
f 506 508 509
f 508 510 511
f 510 512 513
f 512 514 515
f 514 516 517
f 516 518 519
f 518 520 521
f 520 522 523
f 522 524 525
f 524 526 527
f 526 528 529
f 528 530 531
f 530 532 533
f 532 534 535
f 534 536 537
f 536 538 539
f 538 540 541
f 540 542 543
f 542 544 545
f 544 546 547
f 546 548 549
f 548 550 551
f 550 552 553
f 552 554 555
f 554 556 557
f 556 558 559
f 558 560 561
f 560 562 563
f 562 564 565
f 564 566 567
f 566 568 569
f 568 570 571
f 570 572 573
f 572 574 575
f 574 576 577
f 576 578 579
f 578 580 581
f 580 582 583
f 582 584 585
f 584 586 587
f 586 588 589
f 588 590 591
f 590 592 593
f 592 594 595
f 594 596 597
f 596 598 599
f 598 600 601
f 600 602 603
f 602 604 605
f 604 606 607
f 606 608 609
f 608 610 611
f 610 612 613
f 612 614 615
f 614 616 617
f 616 618 619
f 618 620 621
f 620 622 623
f 622 624 625
f 624 626 627
f 626 628 629
f 628 630 631
f 630 632 633
f 632 634 635
f 634 636 637
f 636 638 639
f 638 640 641
f 640 642 643
f 642 644 645
f 644 646 647
f 646 648 649
f 648 650 651
f 650 652 653
f 652 654 655
f 654 656 657
f 656 658 659
f 658 660 661
f 660 662 663
f 662 664 665
f 664 666 667
f 666 668 669
f 668 670 671
f 670 672 673
f 672 674 675
f 674 676 677
f 676 678 679
f 678 680 681
f 680 682 683
f 682 684 685
f 684 686 687
f 686 688 689
f 688 690 691
f 690 692 693
f 692 694 695
f 694 696 697
f 696 698 699
f 698 700 701
f 700 702 703
f 702 704 705
f 704 706 707
f 706 708 709
f 708 710 711
f 710 712 713
f 712 714 715
f 714 716 717
f 716 718 719
f 718 1 720

o Shape_3
usemtl material_1
f 721 1 1441
f 721 1 1441

o Shape_4
usemtl material_1
f 1350 90 1442
f 1350 90 1442

o Shape_5
usemtl material_1
f 1260 180 1443
f 1260 180 1443

o Shape_6
usemtl material_1
f 1170 270 1444
f 1170 270 1444

o Shape_7
usemtl material_1
f 1080 360 1445
f 1080 360 1445

o Shape_8
usemtl material_1
f 990 450 1446
f 990 450 1446

o Shape_9
usemtl material_1
f 900 540 1447
f 900 540 1447

o Shape_10
usemtl material_1
f 810 630 1448
f 810 630 1448

o Shape_11
usemtl material_1
f 721 1 1441
f 721 1 1441

o Shape_12
usemtl material_1
f 1449 1450 1451
f 1449 1450 1451

o Shape_13
usemtl material_1
f 1452 1450 1453
f 1452 1450 1453

o Shape_14
usemtl material_1
f 1454 1452 1455
f 1454 1452 1455

o Shape_15
usemtl material_1
f 1449 1454 1456
f 1449 1454 1456

o Shape_16
usemtl material_1
f 1457 1458 1459
f 1457 1458 1459

o Shape_17
usemtl material_1
f 1450 1458 1460
f 1450 1458 1460

o Shape_18
usemtl material_1
f 1449 1450 1451
f 1449 1450 1451

o Shape_19
usemtl material_1
f 1457 1449 1461
f 1457 1449 1461

o Shape_20
usemtl material_1
f 1462 1463 1464
f 1462 1463 1464

o Shape_21
usemtl material_1
f 1458 1463 1465
f 1458 1463 1465

o Shape_22
usemtl material_1
f 1457 1458 1459
f 1457 1458 1459

o Shape_23
usemtl material_1
f 1462 1457 1466
f 1462 1457 1466

o Shape_24
usemtl material_1
f 1454 1452 1455
f 1454 1452 1455

o Shape_25
usemtl material_1
f 1463 1452 1467
f 1463 1452 1467

o Shape_26
usemtl material_1
f 1462 1463 1464
f 1462 1463 1464

o Shape_27
usemtl material_1
f 1454 1462 1468
f 1454 1462 1468

o Shape_28
usemtl material_1
f 1462 1457 1466
f 1462 1457 1466

o Shape_29
usemtl material_1
f 1457 1449 1461
f 1457 1449 1461

o Shape_30
usemtl material_1
f 1449 1454 1456
f 1449 1454 1456

o Shape_31
usemtl material_1
f 1454 1462 1468
f 1454 1462 1468

