mtllib 15190_D-010a.mtl

v 83.7558 416.9611 33404.3900
v 637.5439 416.9611 33404.3900
v 363.8500 417.4611 33404.3900
v 637.5439 970.7492 33404.3900
v 637.0439 697.0553 33404.3900
v 83.7558 970.7492 33404.3900
v 357.4497 970.2492 33404.3900
v 83.2558 697.0553 33404.3900
v 83.7558 970.7492 33271.4800
v 83.7558 970.7492 33338.9900
v 83.7558 416.9611 33271.4800
v 84.2558 690.6550 33271.4800
v 83.7558 416.9611 33338.9900
v 637.5439 970.7492 33271.4800
v 357.4497 970.2492 33271.4800
v 637.5439 416.9611 33271.4800
v 637.0439 697.0553 33271.4800
v 363.8500 417.4611 33271.4800
v 637.5439 416.9611 33338.9900
v 637.5439 970.7492 33338.9900
v 371.7256 693.8552 33271.4800
v 371.7239 694.0485 33271.4800
v 371.7243 693.9529 33271.4800
v 371.7188 694.2417 33271.4800
v 371.7209 694.1462 33271.4800
v 371.7104 694.4348 33271.4800
v 371.7142 694.3394 33271.4800
v 371.6986 694.6277 33271.4800
v 371.7040 694.5324 33271.4800
v 371.6834 694.8205 33271.4800
v 371.6905 694.7252 33271.4800
v 371.6649 695.0129 33271.4800
v 371.6736 694.9178 33271.4800
v 371.6430 695.2050 33271.4800
v 371.6534 695.1100 33271.4800
v 371.6178 695.3966 33271.4800
v 371.6299 695.3018 33271.4800
v 371.5892 695.5878 33271.4800
v 371.6029 695.4932 33271.4800
v 371.5573 695.7784 33271.4800
v 371.5727 695.6841 33271.4800
v 371.5221 695.9685 33271.4800
v 371.5391 695.8745 33271.4800
v 371.4836 696.1580 33271.4800
v 371.5022 696.0643 33271.4800
v 371.4417 696.3467 33271.4800
v 371.4620 696.2533 33271.4800
v 371.3966 696.5347 33271.4800
v 371.4185 696.4417 33271.4800
v 371.3482 696.7218 33271.4800
v 371.3717 696.6292 33271.4800
v 371.2965 696.9081 33271.4800
v 371.3217 696.8159 33271.4800
v 371.2416 697.0934 33271.4800
v 371.2684 697.0017 33271.4800
v 371.1835 697.2778 33271.4800
v 371.2118 697.1865 33271.4800
v 371.1222 697.4611 33271.4800
v 371.1521 697.3704 33271.4800
v 371.0576 697.6433 33271.4800
v 371.0891 697.5531 33271.4800
v 370.9900 697.8243 33271.4800
v 371.0230 697.7347 33271.4800
v 370.9191 698.0042 33271.4800
v 370.9537 697.9152 33271.4800
v 370.8451 698.1828 33271.4800
v 370.8813 698.0944 33271.4800
v 370.7680 698.3601 33271.4800
v 370.8058 698.2723 33271.4800
v 370.6879 698.5360 33271.4800
v 370.7271 698.4489 33271.4800
v 370.6047 698.7104 33271.4800
v 370.6454 698.6240 33271.4800
v 370.5184 698.8835 33271.4800
v 370.5607 698.7978 33271.4800
v 370.4291 699.0549 33271.4800
v 370.4729 698.9700 33271.4800
v 370.3369 699.2248 33271.4800
v 370.3821 699.1406 33271.4800
v 370.2417 699.3931 33271.4800
v 370.2884 699.3097 33271.4800
v 370.1436 699.5596 33271.4800
v 370.1917 699.4771 33271.4800
v 370.0426 699.7244 33271.4800
v 370.0922 699.6428 33271.4800
v 369.9388 699.8875 33271.4800
v 369.9897 699.8066 33271.4800
v 369.8321 700.0486 33271.4800
v 369.8844 699.9688 33271.4800
v 369.7226 700.2079 33271.4800
v 369.7763 700.1290 33271.4800
v 369.6103 700.3654 33271.4800
v 369.6654 700.2873 33271.4800
v 369.4953 700.5208 33271.4800
v 369.5518 700.4437 33271.4800
v 369.3777 700.6741 33271.4800
v 369.4355 700.5980 33271.4800
v 369.2573 700.8254 33271.4800
v 369.3165 700.7504 33271.4800
v 369.1344 700.9745 33271.4800
v 369.1948 700.9006 33271.4800
v 369.0088 701.1215 33271.4800
v 369.0706 701.0486 33271.4800
v 368.8807 701.2663 33271.4800
v 368.9437 701.1945 33271.4800
v 368.7501 701.4088 33271.4800
v 368.8144 701.3381 33271.4800
v 368.6171 701.5490 33271.4800
v 368.6825 701.4794 33271.4800
v 368.4816 701.6869 33271.4800
v 368.5482 701.6185 33271.4800
v 368.3437 701.8224 33271.4800
v 368.4116 701.7551 33271.4800
v 368.2035 701.9554 33271.4800
v 368.2725 701.8894 33271.4800
v 368.0610 702.0861 33271.4800
v 368.1311 702.0212 33271.4800
v 367.9162 702.2142 33271.4800
v 367.9875 702.1505 33271.4800
v 367.7692 702.3397 33271.4800
v 367.8416 702.2773 33271.4800
v 367.6200 702.4626 33271.4800
v 367.6935 702.4016 33271.4800
v 367.4688 702.5830 33271.4800
v 367.5433 702.5232 33271.4800
v 367.3154 702.7007 33271.4800
v 367.3909 702.6422 33271.4800
v 367.1600 702.8157 33271.4800
v 367.2365 702.7585 33271.4800
v 367.0026 702.9279 33271.4800
v 367.0802 702.8721 33271.4800
v 366.8433 703.0374 33271.4800
v 366.9218 702.9829 33271.4800
v 366.6821 703.1441 33271.4800
v 366.7616 703.0910 33271.4800
v 366.5191 703.2479 33271.4800
v 366.5995 703.1963 33271.4800
v 366.3543 703.3489 33271.4800
v 366.4355 703.2986 33271.4800
v 366.1877 703.4471 33271.4800
v 366.2698 703.3982 33271.4800
v 366.0195 703.5422 33271.4800
v 366.1024 703.4948 33271.4800
v 365.8496 703.6345 33271.4800
v 365.9333 703.5885 33271.4800
v 365.6781 703.7238 33271.4800
v 365.7627 703.6793 33271.4800
v 365.5051 703.8100 33271.4800
v 365.5905 703.7670 33271.4800
v 365.3307 703.8932 33271.4800
v 365.4167 703.8517 33271.4800
v 365.1548 703.9734 33271.4800
v 365.2415 703.9333 33271.4800
v 364.9775 704.0505 33271.4800
v 365.0649 704.0120 33271.4800
v 364.7989 704.1245 33271.4800
v 364.8870 704.0875 33271.4800
v 364.6190 704.1953 33271.4800
v 364.7078 704.1599 33271.4800
v 364.4380 704.2630 33271.4800
v 364.5273 704.2291 33271.4800
v 364.2557 704.3275 33271.4800
v 364.3457 704.2952 33271.4800
v 364.0724 704.3889 33271.4800
v 364.1629 704.3582 33271.4800
v 363.8881 704.4470 33271.4800
v 363.9791 704.4178 33271.4800
v 363.7027 704.5019 33271.4800
v 363.7942 704.4744 33271.4800
v 363.5164 704.5535 33271.4800
v 363.6084 704.5276 33271.4800
v 363.3293 704.6019 33271.4800
v 363.4217 704.5776 33271.4800
v 363.1413 704.6470 33271.4800
v 363.2341 704.6243 33271.4800
v 362.9526 704.6889 33271.4800
v 363.0458 704.6678 33271.4800
v 362.7632 704.7274 33271.4800
v 362.8567 704.7080 33271.4800
v 362.5731 704.7627 33271.4800
v 362.6670 704.7448 33271.4800
v 362.3825 704.7946 33271.4800
v 362.4766 704.7784 33271.4800
v 362.1913 704.8231 33271.4800
v 362.2857 704.8086 33271.4800
v 361.9996 704.8484 33271.4800
v 362.0943 704.8355 33271.4800
v 361.8076 704.8702 33271.4800
v 361.9024 704.8590 33271.4800
v 361.6151 704.8888 33271.4800
v 361.7102 704.8792 33271.4800
v 361.4225 704.9039 33271.4800
v 361.5176 704.8961 33271.4800
v 361.2295 704.9158 33271.4800
v 361.3248 704.9095 33271.4800
v 361.0364 704.9242 33271.4800
v 361.1318 704.9196 33271.4800
v 360.8431 704.9293 33271.4800
v 360.9386 704.9263 33271.4800
v 360.6498 704.9309 33271.4800
v 360.7454 704.9297 33271.4800
v 360.4565 704.9293 33271.4800
v 360.5521 704.9296 33271.4800
v 360.2633 704.9242 33271.4800
v 360.3588 704.9263 33271.4800
v 360.0702 704.9158 33271.4800
v 360.1656 704.9195 33271.4800
v 359.8772 704.9039 33271.4800
v 359.9726 704.9094 33271.4800
v 359.6845 704.8888 33271.4800
v 359.7798 704.8959 33271.4800
v 359.4921 704.8702 33271.4800
v 359.5872 704.8790 33271.4800
v 359.3000 704.8484 33271.4800
v 359.3950 704.8588 33271.4800
v 359.1084 704.8231 33271.4800
v 359.2032 704.8352 33271.4800
v 358.9172 704.7946 33271.4800
v 359.0117 704.8083 33271.4800
v 358.7266 704.7627 33271.4800
v 358.8208 704.7780 33271.4800
v 358.5365 704.7274 33271.4800
v 358.6305 704.7444 33271.4800
v 358.3470 704.6889 33271.4800
v 358.4408 704.7075 33271.4800
v 358.1583 704.6470 33271.4800
v 358.2517 704.6673 33271.4800
v 357.9704 704.6019 33271.4800
v 358.0634 704.6238 33271.4800
v 357.7832 704.5535 33271.4800
v 357.8758 704.5770 33271.4800
v 357.5970 704.5019 33271.4800
v 357.6891 704.5270 33271.4800
v 357.4116 704.4470 33271.4800
v 357.5033 704.4737 33271.4800
v 357.2272 704.3889 33271.4800
v 357.3185 704.4172 33271.4800
v 357.0439 704.3275 33271.4800
v 357.1346 704.3574 33271.4800
v 356.8617 704.2630 33271.4800
v 356.9519 704.2945 33271.4800
v 356.6806 704.1953 33271.4800
v 356.7703 704.2283 33271.4800
v 356.5008 704.1245 33271.4800
v 356.5898 704.1591 33271.4800
v 356.3222 704.0505 33271.4800
v 356.4106 704.0866 33271.4800
v 356.1449 703.9734 33271.4800
v 356.2327 704.0111 33271.4800
v 355.9690 703.8932 33271.4800
v 356.0561 703.9324 33271.4800
v 355.7946 703.8100 33271.4800
v 355.8810 703.8508 33271.4800
v 355.6216 703.7238 33271.4800
v 355.7072 703.7660 33271.4800
v 355.4501 703.6345 33271.4800
v 355.5350 703.6782 33271.4800
v 355.2802 703.5422 33271.4800
v 355.3643 703.5875 33271.4800
v 355.1120 703.4471 33271.4800
v 355.1953 703.4937 33271.4800
v 354.9454 703.3489 33271.4800
v 355.0279 703.3971 33271.4800
v 354.7806 703.2479 33271.4800
v 354.8622 703.2975 33271.4800
v 354.6176 703.1441 33271.4800
v 354.6983 703.1951 33271.4800
v 354.4564 703.0374 33271.4800
v 354.5363 703.0898 33271.4800
v 354.2970 702.9279 33271.4800
v 354.3760 702.9817 33271.4800
v 354.1397 702.8157 33271.4800
v 354.2177 702.8708 33271.4800
v 353.9843 702.7007 33271.4800
v 354.0613 702.7571 33271.4800
v 353.8309 702.5830 33271.4800
v 353.9070 702.6408 33271.4800
v 353.6796 702.4626 33271.4800
v 353.7547 702.5218 33271.4800
v 353.5305 702.3397 33271.4800
v 353.6045 702.4001 33271.4800
v 353.3835 702.2142 33271.4800
v 353.4564 702.2759 33271.4800
v 353.2387 702.0861 33271.4800
v 353.3105 702.1490 33271.4800
v 353.0962 701.9554 33271.4800
v 353.1669 702.0197 33271.4800
v 352.9560 701.8224 33271.4800
v 353.0255 701.8879 33271.4800
v 352.8181 701.6869 33271.4800
v 352.8865 701.7536 33271.4800
v 352.6826 701.5490 33271.4800
v 352.7498 701.6169 33271.4800
v 352.5495 701.4088 33271.4800
v 352.6156 701.4778 33271.4800
v 352.4189 701.2663 33271.4800
v 352.4838 701.3364 33271.4800
v 352.2909 701.1215 33271.4800
v 352.3545 701.1928 33271.4800
v 352.1653 700.9745 33271.4800
v 352.2277 701.0469 33271.4800
v 352.0424 700.8254 33271.4800
v 352.1035 700.8988 33271.4800
v 351.9220 700.6741 33271.4800
v 351.9818 700.7486 33271.4800
v 351.8044 700.5208 33271.4800
v 351.8628 700.5963 33271.4800
v 351.6894 700.3654 33271.4800
v 351.7465 700.4419 33271.4800
v 351.5771 700.2079 33271.4800
v 351.6329 700.2855 33271.4800
v 351.4676 700.0486 33271.4800
v 351.5221 700.1271 33271.4800
v 351.3609 699.8875 33271.4800
v 351.4140 699.9669 33271.4800
v 351.2570 699.7244 33271.4800
v 351.3087 699.8047 33271.4800
v 351.1561 699.5596 33271.4800
v 351.2063 699.6409 33271.4800
v 351.0580 699.3931 33271.4800
v 351.1068 699.4752 33271.4800
v 350.9628 699.2248 33271.4800
v 351.0102 699.3077 33271.4800
v 350.8705 699.0549 33271.4800
v 350.9165 699.1387 33271.4800
v 350.7812 698.8835 33271.4800
v 350.8257 698.9680 33271.4800
v 350.6950 698.7104 33271.4800
v 350.7380 698.7958 33271.4800
v 350.6118 698.5360 33271.4800
v 350.6533 698.6220 33271.4800
v 350.5316 698.3601 33271.4800
v 350.5716 698.4468 33271.4800
v 350.4545 698.1828 33271.4800
v 350.4930 698.2703 33271.4800
v 350.3806 698.0042 33271.4800
v 350.4175 698.0923 33271.4800
v 350.3097 697.8243 33271.4800
v 350.3451 697.9131 33271.4800
v 350.2420 697.6433 33271.4800
v 350.2759 697.7327 33271.4800
v 350.1775 697.4611 33271.4800
v 350.2098 697.5510 33271.4800
v 350.1161 697.2778 33271.4800
v 350.1469 697.3682 33271.4800
v 350.0580 697.0934 33271.4800
v 350.0872 697.1844 33271.4800
v 350.0031 696.9081 33271.4800
v 350.0307 696.9996 33271.4800
v 349.9515 696.7218 33271.4800
v 349.9774 696.8137 33271.4800
v 349.9031 696.5347 33271.4800
v 349.9274 696.6270 33271.4800
v 349.8579 696.3467 33271.4800
v 349.8806 696.4395 33271.4800
v 349.8161 696.1580 33271.4800
v 349.8372 696.2512 33271.4800
v 349.7776 695.9685 33271.4800
v 349.7970 696.0621 33271.4800
v 349.7423 695.7784 33271.4800
v 349.7602 695.8723 33271.4800
v 349.7104 695.5878 33271.4800
v 349.7266 695.6819 33271.4800
v 349.6819 695.3966 33271.4800
v 349.6964 695.4910 33271.4800
v 349.6566 695.2050 33271.4800
v 349.6695 695.2996 33271.4800
v 349.6347 695.0129 33271.4800
v 349.6460 695.1078 33271.4800
v 349.6162 694.8205 33271.4800
v 349.6258 694.9155 33271.4800
v 349.6010 694.6277 33271.4800
v 349.6090 694.7230 33271.4800
v 349.5893 694.4348 33271.4800
v 349.5955 694.5302 33271.4800
v 349.5808 694.2417 33271.4800
v 349.5854 694.3372 33271.4800
v 349.5758 694.0485 33271.4800
v 349.5787 694.1440 33271.4800
v 349.5741 693.8552 33271.4800
v 349.5753 693.9507 33271.4800
v 349.5758 693.6619 33271.4800
v 349.5753 693.7574 33271.4800
v 349.5808 693.4686 33271.4800
v 349.5787 693.5641 33271.4800
v 349.5893 693.2755 33271.4800
v 349.5855 693.3710 33271.4800
v 349.6010 693.0826 33271.4800
v 349.5956 693.1779 33271.4800
v 349.6162 692.8898 33271.4800
v 349.6091 692.9851 33271.4800
v 349.6347 692.6974 33271.4800
v 349.6260 692.7926 33271.4800
v 349.6566 692.5054 33271.4800
v 349.6462 692.6003 33271.4800
v 349.6819 692.3137 33271.4800
v 349.6698 692.4085 33271.4800
v 349.7104 692.1226 33271.4800
v 349.6967 692.2171 33271.4800
v 349.7423 691.9319 33271.4800
v 349.7270 692.0262 33271.4800
v 349.7776 691.7418 33271.4800
v 349.7606 691.8358 33271.4800
v 349.8161 691.5524 33271.4800
v 349.7975 691.6461 33271.4800
v 349.8579 691.3636 33271.4800
v 349.8377 691.4570 33271.4800
v 349.9031 691.1757 33271.4800
v 349.8812 691.2687 33271.4800
v 349.9515 690.9885 33271.4800
v 349.9279 691.0812 33271.4800
v 350.0031 690.8022 33271.4800
v 349.9780 690.8945 33271.4800
v 350.0580 690.6169 33271.4800
v 350.0313 690.7087 33271.4800
v 350.1161 690.4326 33271.4800
v 350.0878 690.5238 33271.4800
v 350.1775 690.2493 33271.4800
v 350.1476 690.3400 33271.4800
v 350.2420 690.0670 33271.4800
v 350.2105 690.1572 33271.4800
v 350.3097 689.8860 33271.4800
v 350.2767 689.9756 33271.4800
v 350.3806 689.7061 33271.4800
v 350.3459 689.7952 33271.4800
v 350.4545 689.5275 33271.4800
v 350.4184 689.6160 33271.4800
v 350.5316 689.3503 33271.4800
v 350.4939 689.4380 33271.4800
v 350.6118 689.1744 33271.4800
v 350.5725 689.2615 33271.4800
v 350.6950 688.9999 33271.4800
v 350.6543 689.0863 33271.4800
v 350.7812 688.8269 33271.4800
v 350.7390 688.9125 33271.4800
v 350.8705 688.6554 33271.4800
v 350.8268 688.7404 33271.4800
v 350.9628 688.4855 33271.4800
v 350.9175 688.5697 33271.4800
v 351.0580 688.3173 33271.4800
v 351.0113 688.4006 33271.4800
v 351.1561 688.1508 33271.4800
v 351.1079 688.2333 33271.4800
v 351.2570 687.9859 33271.4800
v 351.2075 688.0676 33271.4800
v 351.3609 687.8229 33271.4800
v 351.3099 687.9037 33271.4800
v 351.4676 687.6617 33271.4800
v 351.4152 687.7416 33271.4800
v 351.5771 687.5024 33271.4800
v 351.5233 687.5814 33271.4800
v 351.6894 687.3450 33271.4800
v 351.6342 687.4230 33271.4800
v 351.8044 687.1896 33271.4800
v 351.7479 687.2667 33271.4800
v 351.9220 687.0363 33271.4800
v 351.8642 687.1123 33271.4800
v 352.0424 686.8849 33271.4800
v 351.9832 686.9600 33271.4800
v 352.1653 686.7358 33271.4800
v 352.1049 686.8098 33271.4800
v 352.2909 686.5888 33271.4800
v 352.2291 686.6617 33271.4800
v 352.4189 686.4440 33271.4800
v 352.3560 686.5159 33271.4800
v 352.5495 686.3015 33271.4800
v 352.4853 686.3723 33271.4800
v 352.6826 686.1613 33271.4800
v 352.6172 686.2309 33271.4800
v 352.8181 686.0234 33271.4800
v 352.7514 686.0919 33271.4800
v 352.9560 685.8879 33271.4800
v 352.8881 685.9552 33271.4800
v 353.0962 685.7549 33271.4800
v 353.0272 685.8209 33271.4800
v 353.2387 685.6243 33271.4800
v 353.1685 685.6891 33271.4800
v 353.3835 685.4962 33271.4800
v 353.3122 685.5598 33271.4800
v 353.5305 685.3707 33271.4800
v 353.4581 685.4330 33271.4800
v 353.6796 685.2477 33271.4800
v 353.6062 685.3088 33271.4800
v 353.8309 685.1274 33271.4800
v 353.7564 685.1871 33271.4800
v 353.9843 685.0096 33271.4800
v 353.9088 685.0682 33271.4800
v 354.1397 684.8947 33271.4800
v 354.0631 684.9518 33271.4800
v 354.2970 684.7824 33271.4800
v 354.2195 684.8383 33271.4800
v 354.4564 684.6730 33271.4800
v 354.3779 684.7274 33271.4800
v 354.6176 684.5663 33271.4800
v 354.5381 684.6193 33271.4800
v 354.7806 684.4624 33271.4800
v 354.7002 684.5141 33271.4800
v 354.9454 684.3614 33271.4800
v 354.8642 684.4117 33271.4800
v 355.1120 684.2633 33271.4800
v 355.0298 684.3121 33271.4800
v 355.2802 684.1681 33271.4800
v 355.1973 684.2155 33271.4800
v 355.4501 684.0759 33271.4800
v 355.3663 684.1218 33271.4800
v 355.6216 683.9866 33271.4800
v 355.5370 684.0311 33271.4800
v 355.7946 683.9003 33271.4800
v 355.7092 683.9434 33271.4800
v 355.9690 683.8171 33271.4800
v 355.8830 683.8586 33271.4800
v 356.1449 683.7369 33271.4800
v 356.0582 683.7770 33271.4800
v 356.3222 683.6599 33271.4800
v 356.2347 683.6984 33271.4800
v 356.5008 683.5859 33271.4800
v 356.4127 683.6229 33271.4800
v 356.6806 683.5151 33271.4800
v 356.5919 683.5505 33271.4800
v 356.8617 683.4474 33271.4800
v 356.7724 683.4812 33271.4800
v 357.0439 683.3828 33271.4800
v 356.9540 683.4151 33271.4800
v 357.2272 683.3215 33271.4800
v 357.1368 683.3522 33271.4800
v 357.4116 683.2634 33271.4800
v 357.3206 683.2925 33271.4800
v 357.5970 683.2084 33271.4800
v 357.5055 683.2360 33271.4800
v 357.7832 683.1568 33271.4800
v 357.6913 683.1827 33271.4800
v 357.9704 683.1084 33271.4800
v 357.8780 683.1328 33271.4800
v 358.1583 683.0633 33271.4800
v 358.0655 683.0860 33271.4800
v 358.3470 683.0214 33271.4800
v 358.2539 683.0425 33271.4800
v 358.5365 682.9829 33271.4800
v 358.4429 683.0024 33271.4800
v 358.7266 682.9477 33271.4800
v 358.6327 682.9655 33271.4800
v 358.9172 682.9158 33271.4800
v 358.8231 682.9319 33271.4800
v 359.1084 682.8872 33271.4800
v 359.0140 682.9017 33271.4800
v 359.3000 682.8619 33271.4800
v 359.2054 682.8749 33271.4800
v 359.4921 682.8401 33271.4800
v 359.3972 682.8513 33271.4800
v 359.6845 682.8215 33271.4800
v 359.5895 682.8311 33271.4800
v 359.8772 682.8064 33271.4800
v 359.7820 682.8143 33271.4800
v 360.0702 682.7946 33271.4800
v 359.9749 682.8008 33271.4800
v 360.2633 682.7861 33271.4800
v 360.1679 682.7908 33271.4800
v 360.4565 682.7811 33271.4800
v 360.3611 682.7840 33271.4800
v 360.6498 682.7794 33271.4800
v 360.5543 682.7806 33271.4800
v 360.8431 682.7811 33271.4800
v 360.7476 682.7807 33271.4800
v 361.0364 682.7861 33271.4800
v 360.9409 682.7841 33271.4800
v 361.2295 682.7946 33271.4800
v 361.1340 682.7908 33271.4800
v 361.4225 682.8064 33271.4800
v 361.3271 682.8010 33271.4800
v 361.6151 682.8215 33271.4800
v 361.5199 682.8145 33271.4800
v 361.8076 682.8401 33271.4800
v 361.7124 682.8314 33271.4800
v 361.9996 682.8619 33271.4800
v 361.9047 682.8516 33271.4800
v 362.1913 682.8872 33271.4800
v 362.0965 682.8751 33271.4800
v 362.3825 682.9158 33271.4800
v 362.2879 682.9020 33271.4800
v 362.5731 682.9477 33271.4800
v 362.4788 682.9323 33271.4800
v 362.7632 682.9829 33271.4800
v 362.6692 682.9659 33271.4800
v 362.9526 683.0214 33271.4800
v 362.8589 683.0028 33271.4800
v 363.1413 683.0633 33271.4800
v 363.0480 683.0430 33271.4800
v 363.3293 683.1084 33271.4800
v 363.2363 683.0865 33271.4800
v 363.5164 683.1568 33271.4800
v 363.4239 683.1333 33271.4800
v 363.7027 683.2084 33271.4800
v 363.6106 683.1833 33271.4800
v 363.8881 683.2634 33271.4800
v 363.7964 683.2366 33271.4800
v 364.0724 683.3215 33271.4800
v 363.9812 683.2932 33271.4800
v 364.2557 683.3828 33271.4800
v 364.1650 683.3529 33271.4800
v 364.4380 683.4474 33271.4800
v 364.3478 683.4159 33271.4800
v 364.6190 683.5151 33271.4800
v 364.5294 683.4820 33271.4800
v 364.7989 683.5859 33271.4800
v 364.7098 683.5513 33271.4800
v 364.9775 683.6599 33271.4800
v 364.8891 683.6237 33271.4800
v 365.1548 683.7369 33271.4800
v 365.0670 683.6993 33271.4800
v 365.3307 683.8171 33271.4800
v 365.2436 683.7779 33271.4800
v 365.5051 683.9003 33271.4800
v 365.4187 683.8596 33271.4800
v 365.6781 683.9866 33271.4800
v 365.5924 683.9443 33271.4800
v 365.8496 684.0759 33271.4800
v 365.7646 684.0321 33271.4800
v 366.0195 684.1681 33271.4800
v 365.9353 684.1229 33271.4800
v 366.1877 684.2633 33271.4800
v 366.1044 684.2166 33271.4800
v 366.3543 684.3614 33271.4800
v 366.2718 684.3133 33271.4800
v 366.5191 684.4624 33271.4800
v 366.4374 684.4128 33271.4800
v 366.6821 684.5663 33271.4800
v 366.6013 684.5153 33271.4800
v 366.8433 684.6730 33271.4800
v 366.7634 684.6205 33271.4800
v 367.0026 684.7824 33271.4800
v 366.9236 684.7287 33271.4800
v 367.1600 684.8947 33271.4800
v 367.0820 684.8395 33271.4800
v 367.3154 685.0096 33271.4800
v 367.2383 684.9532 33271.4800
v 367.4688 685.1274 33271.4800
v 367.3927 685.0695 33271.4800
v 367.6200 685.2477 33271.4800
v 367.5450 685.1885 33271.4800
v 367.7692 685.3707 33271.4800
v 367.6952 685.3102 33271.4800
v 367.9162 685.4962 33271.4800
v 367.8433 685.4344 33271.4800
v 368.0610 685.6243 33271.4800
v 367.9891 685.5613 33271.4800
v 368.2035 685.7549 33271.4800
v 368.1328 685.6906 33271.4800
v 368.3437 685.8879 33271.4800
v 368.2741 685.8224 33271.4800
v 368.4816 686.0234 33271.4800
v 368.4131 685.9568 33271.4800
v 368.6171 686.1613 33271.4800
v 368.5498 686.0934 33271.4800
v 368.7501 686.3015 33271.4800
v 368.6841 686.2325 33271.4800
v 368.8807 686.4440 33271.4800
v 368.8159 686.3739 33271.4800
v 369.0088 686.5888 33271.4800
v 368.9452 686.5175 33271.4800
v 369.1344 686.7358 33271.4800
v 369.0720 686.6635 33271.4800
v 369.2573 686.8849 33271.4800
v 369.1962 686.8115 33271.4800
v 369.3777 687.0363 33271.4800
v 369.3178 686.9617 33271.4800
v 369.4953 687.1896 33271.4800
v 369.4368 687.1141 33271.4800
v 369.6103 687.3450 33271.4800
v 369.5532 687.2684 33271.4800
v 369.7226 687.5024 33271.4800
v 369.6667 687.4249 33271.4800
v 369.8321 687.6617 33271.4800
v 369.7776 687.5832 33271.4800
v 369.9388 687.8229 33271.4800
v 369.8857 687.7435 33271.4800
v 370.0426 687.9859 33271.4800
v 369.9909 687.9056 33271.4800
v 370.1436 688.1508 33271.4800
v 370.0934 688.0695 33271.4800
v 370.2417 688.3173 33271.4800
v 370.1929 688.2352 33271.4800
v 370.3369 688.4855 33271.4800
v 370.2895 688.4026 33271.4800
v 370.4291 688.6554 33271.4800
v 370.3832 688.5717 33271.4800
v 370.5184 688.8269 33271.4800
v 370.4739 688.7423 33271.4800
v 370.6047 688.9999 33271.4800
v 370.5616 688.9146 33271.4800
v 370.6879 689.1744 33271.4800
v 370.6464 689.0883 33271.4800
v 370.7680 689.3503 33271.4800
v 370.7281 689.2635 33271.4800
v 370.8451 689.5275 33271.4800
v 370.8066 689.4401 33271.4800
v 370.9191 689.7061 33271.4800
v 370.8821 689.6180 33271.4800
v 370.9900 689.8860 33271.4800
v 370.9545 689.7972 33271.4800
v 371.0576 690.0670 33271.4800
v 371.0238 689.9777 33271.4800
v 371.1222 690.2493 33271.4800
v 371.0899 690.1594 33271.4800
v 371.1835 690.4326 33271.4800
v 371.1528 690.3421 33271.4800
v 371.2416 690.6169 33271.4800
v 371.2125 690.5259 33271.4800
v 371.2965 690.8022 33271.4800
v 371.2690 690.7108 33271.4800
v 371.3482 690.9885 33271.4800
v 371.3223 690.8966 33271.4800
v 371.3966 691.1757 33271.4800
v 371.3723 691.0833 33271.4800
v 371.4417 691.3636 33271.4800
v 371.4190 691.2709 33271.4800
v 371.4836 691.5524 33271.4800
v 371.4625 691.4592 33271.4800
v 371.5221 691.7418 33271.4800
v 371.5027 691.6483 33271.4800
v 371.5573 691.9319 33271.4800
v 371.5395 691.8380 33271.4800
v 371.5892 692.1226 33271.4800
v 371.5731 692.0284 33271.4800
v 371.6178 692.3137 33271.4800
v 371.6033 692.2193 33271.4800
v 371.6430 692.5054 33271.4800
v 371.6302 692.4107 33271.4800
v 371.6649 692.6974 33271.4800
v 371.6537 692.6025 33271.4800
v 371.6834 692.8898 33271.4800
v 371.6739 692.7948 33271.4800
v 371.6986 693.0826 33271.4800
v 371.6907 692.9874 33271.4800
v 371.7104 693.2755 33271.4800
v 371.7042 693.1802 33271.4800
v 371.7188 693.4686 33271.4800
v 371.7143 693.3732 33271.4800
v 371.7239 693.6619 33271.4800
v 371.7210 693.5664 33271.4800
v 371.7243 693.7596 33271.4800
v 371.7256 693.8552 33404.3900
v 371.7239 694.0485 33404.3900
v 371.7243 693.9529 33404.3900
v 371.7188 694.2417 33404.3900
v 371.7209 694.1462 33404.3900
v 371.7104 694.4348 33404.3900
v 371.7142 694.3394 33404.3900
v 371.6986 694.6277 33404.3900
v 371.7040 694.5324 33404.3900
v 371.6834 694.8205 33404.3900
v 371.6905 694.7252 33404.3900
v 371.6649 695.0129 33404.3900
v 371.6736 694.9178 33404.3900
v 371.6430 695.2050 33404.3900
v 371.6534 695.1100 33404.3900
v 371.6178 695.3966 33404.3900
v 371.6299 695.3018 33404.3900
v 371.5892 695.5878 33404.3900
v 371.6029 695.4932 33404.3900
v 371.5573 695.7784 33404.3900
v 371.5727 695.6841 33404.3900
v 371.5221 695.9685 33404.3900
v 371.5391 695.8745 33404.3900
v 371.4836 696.1580 33404.3900
v 371.5022 696.0643 33404.3900
v 371.4417 696.3467 33404.3900
v 371.4620 696.2533 33404.3900
v 371.3966 696.5347 33404.3900
v 371.4185 696.4417 33404.3900
v 371.3482 696.7218 33404.3900
v 371.3717 696.6292 33404.3900
v 371.2965 696.9081 33404.3900
v 371.3217 696.8159 33404.3900
v 371.2416 697.0934 33404.3900
v 371.2684 697.0017 33404.3900
v 371.1835 697.2778 33404.3900
v 371.2118 697.1865 33404.3900
v 371.1222 697.4611 33404.3900
v 371.1521 697.3704 33404.3900
v 371.0576 697.6433 33404.3900
v 371.0891 697.5531 33404.3900
v 370.9900 697.8243 33404.3900
v 371.0230 697.7347 33404.3900
v 370.9191 698.0042 33404.3900
v 370.9537 697.9152 33404.3900
v 370.8451 698.1828 33404.3900
v 370.8813 698.0944 33404.3900
v 370.7680 698.3601 33404.3900
v 370.8058 698.2723 33404.3900
v 370.6879 698.5360 33404.3900
v 370.7271 698.4489 33404.3900
v 370.6047 698.7104 33404.3900
v 370.6454 698.6240 33404.3900
v 370.5184 698.8835 33404.3900
v 370.5607 698.7978 33404.3900
v 370.4291 699.0549 33404.3900
v 370.4729 698.9700 33404.3900
v 370.3369 699.2248 33404.3900
v 370.3821 699.1406 33404.3900
v 370.2417 699.3931 33404.3900
v 370.2884 699.3097 33404.3900
v 370.1436 699.5596 33404.3900
v 370.1917 699.4771 33404.3900
v 370.0426 699.7244 33404.3900
v 370.0922 699.6428 33404.3900
v 369.9388 699.8875 33404.3900
v 369.9897 699.8066 33404.3900
v 369.8321 700.0486 33404.3900
v 369.8844 699.9688 33404.3900
v 369.7226 700.2079 33404.3900
v 369.7763 700.1290 33404.3900
v 369.6103 700.3654 33404.3900
v 369.6654 700.2873 33404.3900
v 369.4953 700.5208 33404.3900
v 369.5518 700.4437 33404.3900
v 369.3777 700.6741 33404.3900
v 369.4355 700.5980 33404.3900
v 369.2573 700.8254 33404.3900
v 369.3165 700.7504 33404.3900
v 369.1344 700.9745 33404.3900
v 369.1948 700.9006 33404.3900
v 369.0088 701.1215 33404.3900
v 369.0706 701.0486 33404.3900
v 368.8807 701.2663 33404.3900
v 368.9437 701.1945 33404.3900
v 368.7501 701.4088 33404.3900
v 368.8144 701.3381 33404.3900
v 368.6171 701.5490 33404.3900
v 368.6825 701.4794 33404.3900
v 368.4816 701.6869 33404.3900
v 368.5482 701.6185 33404.3900
v 368.3437 701.8224 33404.3900
v 368.4116 701.7551 33404.3900
v 368.2035 701.9554 33404.3900
v 368.2725 701.8894 33404.3900
v 368.0610 702.0861 33404.3900
v 368.1311 702.0212 33404.3900
v 367.9162 702.2142 33404.3900
v 367.9875 702.1505 33404.3900
v 367.7692 702.3397 33404.3900
v 367.8416 702.2773 33404.3900
v 367.6200 702.4626 33404.3900
v 367.6935 702.4016 33404.3900
v 367.4688 702.5830 33404.3900
v 367.5433 702.5232 33404.3900
v 367.3154 702.7007 33404.3900
v 367.3909 702.6422 33404.3900
v 367.1600 702.8157 33404.3900
v 367.2365 702.7585 33404.3900
v 367.0026 702.9279 33404.3900
v 367.0802 702.8721 33404.3900
v 366.8433 703.0374 33404.3900
v 366.9218 702.9829 33404.3900
v 366.6821 703.1441 33404.3900
v 366.7616 703.0910 33404.3900
v 366.5191 703.2479 33404.3900
v 366.5995 703.1963 33404.3900
v 366.3543 703.3489 33404.3900
v 366.4355 703.2986 33404.3900
v 366.1877 703.4471 33404.3900
v 366.2698 703.3982 33404.3900
v 366.0195 703.5422 33404.3900
v 366.1024 703.4948 33404.3900
v 365.8496 703.6345 33404.3900
v 365.9333 703.5885 33404.3900
v 365.6781 703.7238 33404.3900
v 365.7627 703.6793 33404.3900
v 365.5051 703.8100 33404.3900
v 365.5905 703.7670 33404.3900
v 365.3307 703.8932 33404.3900
v 365.4167 703.8517 33404.3900
v 365.1548 703.9734 33404.3900
v 365.2415 703.9333 33404.3900
v 364.9775 704.0505 33404.3900
v 365.0649 704.0120 33404.3900
v 364.7989 704.1245 33404.3900
v 364.8870 704.0875 33404.3900
v 364.6190 704.1953 33404.3900
v 364.7078 704.1599 33404.3900
v 364.4380 704.2630 33404.3900
v 364.5273 704.2291 33404.3900
v 364.2557 704.3275 33404.3900
v 364.3457 704.2952 33404.3900
v 364.0724 704.3889 33404.3900
v 364.1629 704.3582 33404.3900
v 363.8881 704.4470 33404.3900
v 363.9791 704.4178 33404.3900
v 363.7027 704.5019 33404.3900
v 363.7942 704.4744 33404.3900
v 363.5164 704.5535 33404.3900
v 363.6084 704.5276 33404.3900
v 363.3293 704.6019 33404.3900
v 363.4217 704.5776 33404.3900
v 363.1413 704.6470 33404.3900
v 363.2341 704.6243 33404.3900
v 362.9526 704.6889 33404.3900
v 363.0458 704.6678 33404.3900
v 362.7632 704.7274 33404.3900
v 362.8567 704.7080 33404.3900
v 362.5731 704.7627 33404.3900
v 362.6670 704.7448 33404.3900
v 362.3825 704.7946 33404.3900
v 362.4766 704.7784 33404.3900
v 362.1913 704.8231 33404.3900
v 362.2857 704.8086 33404.3900
v 361.9996 704.8484 33404.3900
v 362.0943 704.8355 33404.3900
v 361.8076 704.8702 33404.3900
v 361.9024 704.8590 33404.3900
v 361.6151 704.8888 33404.3900
v 361.7102 704.8792 33404.3900
v 361.4225 704.9039 33404.3900
v 361.5176 704.8961 33404.3900
v 361.2295 704.9158 33404.3900
v 361.3248 704.9095 33404.3900
v 361.0364 704.9242 33404.3900
v 361.1318 704.9196 33404.3900
v 360.8431 704.9293 33404.3900
v 360.9386 704.9263 33404.3900
v 360.6498 704.9309 33404.3900
v 360.7454 704.9297 33404.3900
v 360.4565 704.9293 33404.3900
v 360.5521 704.9296 33404.3900
v 360.2633 704.9242 33404.3900
v 360.3588 704.9263 33404.3900
v 360.0702 704.9158 33404.3900
v 360.1656 704.9195 33404.3900
v 359.8772 704.9039 33404.3900
v 359.9726 704.9094 33404.3900
v 359.6845 704.8888 33404.3900
v 359.7798 704.8959 33404.3900
v 359.4921 704.8702 33404.3900
v 359.5872 704.8790 33404.3900
v 359.3000 704.8484 33404.3900
v 359.3950 704.8588 33404.3900
v 359.1084 704.8231 33404.3900
v 359.2032 704.8352 33404.3900
v 358.9172 704.7946 33404.3900
v 359.0117 704.8083 33404.3900
v 358.7266 704.7627 33404.3900
v 358.8208 704.7780 33404.3900
v 358.5365 704.7274 33404.3900
v 358.6305 704.7444 33404.3900
v 358.3470 704.6889 33404.3900
v 358.4408 704.7075 33404.3900
v 358.1583 704.6470 33404.3900
v 358.2517 704.6673 33404.3900
v 357.9704 704.6019 33404.3900
v 358.0634 704.6238 33404.3900
v 357.7832 704.5535 33404.3900
v 357.8758 704.5770 33404.3900
v 357.5970 704.5019 33404.3900
v 357.6891 704.5270 33404.3900
v 357.4116 704.4470 33404.3900
v 357.5033 704.4737 33404.3900
v 357.2272 704.3889 33404.3900
v 357.3185 704.4172 33404.3900
v 357.0439 704.3275 33404.3900
v 357.1346 704.3574 33404.3900
v 356.8617 704.2630 33404.3900
v 356.9519 704.2945 33404.3900
v 356.6806 704.1953 33404.3900
v 356.7703 704.2283 33404.3900
v 356.5008 704.1245 33404.3900
v 356.5898 704.1591 33404.3900
v 356.3222 704.0505 33404.3900
v 356.4106 704.0866 33404.3900
v 356.1449 703.9734 33404.3900
v 356.2327 704.0111 33404.3900
v 355.9690 703.8932 33404.3900
v 356.0561 703.9324 33404.3900
v 355.7946 703.8100 33404.3900
v 355.8810 703.8508 33404.3900
v 355.6216 703.7238 33404.3900
v 355.7072 703.7660 33404.3900
v 355.4501 703.6345 33404.3900
v 355.5350 703.6782 33404.3900
v 355.2802 703.5422 33404.3900
v 355.3643 703.5875 33404.3900
v 355.1120 703.4471 33404.3900
v 355.1953 703.4937 33404.3900
v 354.9454 703.3489 33404.3900
v 355.0279 703.3971 33404.3900
v 354.7806 703.2479 33404.3900
v 354.8622 703.2975 33404.3900
v 354.6176 703.1441 33404.3900
v 354.6983 703.1951 33404.3900
v 354.4564 703.0374 33404.3900
v 354.5363 703.0898 33404.3900
v 354.2970 702.9279 33404.3900
v 354.3760 702.9817 33404.3900
v 354.1397 702.8157 33404.3900
v 354.2177 702.8708 33404.3900
v 353.9843 702.7007 33404.3900
v 354.0613 702.7571 33404.3900
v 353.8309 702.5830 33404.3900
v 353.9070 702.6408 33404.3900
v 353.6796 702.4626 33404.3900
v 353.7547 702.5218 33404.3900
v 353.5305 702.3397 33404.3900
v 353.6045 702.4001 33404.3900
v 353.3835 702.2142 33404.3900
v 353.4564 702.2759 33404.3900
v 353.2387 702.0861 33404.3900
v 353.3105 702.1490 33404.3900
v 353.0962 701.9554 33404.3900
v 353.1669 702.0197 33404.3900
v 352.9560 701.8224 33404.3900
v 353.0255 701.8879 33404.3900
v 352.8181 701.6869 33404.3900
v 352.8865 701.7536 33404.3900
v 352.6826 701.5490 33404.3900
v 352.7498 701.6169 33404.3900
v 352.5495 701.4088 33404.3900
v 352.6156 701.4778 33404.3900
v 352.4189 701.2663 33404.3900
v 352.4838 701.3364 33404.3900
v 352.2909 701.1215 33404.3900
v 352.3545 701.1928 33404.3900
v 352.1653 700.9745 33404.3900
v 352.2277 701.0469 33404.3900
v 352.0424 700.8254 33404.3900
v 352.1035 700.8988 33404.3900
v 351.9220 700.6741 33404.3900
v 351.9818 700.7486 33404.3900
v 351.8044 700.5208 33404.3900
v 351.8628 700.5963 33404.3900
v 351.6894 700.3654 33404.3900
v 351.7465 700.4419 33404.3900
v 351.5771 700.2079 33404.3900
v 351.6329 700.2855 33404.3900
v 351.4676 700.0486 33404.3900
v 351.5221 700.1271 33404.3900
v 351.3609 699.8875 33404.3900
v 351.4140 699.9669 33404.3900
v 351.2570 699.7244 33404.3900
v 351.3087 699.8047 33404.3900
v 351.1561 699.5596 33404.3900
v 351.2063 699.6409 33404.3900
v 351.0580 699.3931 33404.3900
v 351.1068 699.4752 33404.3900
v 350.9628 699.2248 33404.3900
v 351.0102 699.3077 33404.3900
v 350.8705 699.0549 33404.3900
v 350.9165 699.1387 33404.3900
v 350.7812 698.8835 33404.3900
v 350.8257 698.9680 33404.3900
v 350.6950 698.7104 33404.3900
v 350.7380 698.7958 33404.3900
v 350.6118 698.5360 33404.3900
v 350.6533 698.6220 33404.3900
v 350.5316 698.3601 33404.3900
v 350.5716 698.4468 33404.3900
v 350.4545 698.1828 33404.3900
v 350.4930 698.2703 33404.3900
v 350.3806 698.0042 33404.3900
v 350.4175 698.0923 33404.3900
v 350.3097 697.8243 33404.3900
v 350.3451 697.9131 33404.3900
v 350.2420 697.6433 33404.3900
v 350.2759 697.7327 33404.3900
v 350.1775 697.4611 33404.3900
v 350.2098 697.5510 33404.3900
v 350.1161 697.2778 33404.3900
v 350.1469 697.3682 33404.3900
v 350.0580 697.0934 33404.3900
v 350.0872 697.1844 33404.3900
v 350.0031 696.9081 33404.3900
v 350.0307 696.9996 33404.3900
v 349.9515 696.7218 33404.3900
v 349.9774 696.8137 33404.3900
v 349.9031 696.5347 33404.3900
v 349.9274 696.6270 33404.3900
v 349.8579 696.3467 33404.3900
v 349.8806 696.4395 33404.3900
v 349.8161 696.1580 33404.3900
v 349.8372 696.2512 33404.3900
v 349.7776 695.9685 33404.3900
v 349.7970 696.0621 33404.3900
v 349.7423 695.7784 33404.3900
v 349.7602 695.8723 33404.3900
v 349.7104 695.5878 33404.3900
v 349.7266 695.6819 33404.3900
v 349.6819 695.3966 33404.3900
v 349.6964 695.4910 33404.3900
v 349.6566 695.2050 33404.3900
v 349.6695 695.2996 33404.3900
v 349.6347 695.0129 33404.3900
v 349.6460 695.1078 33404.3900
v 349.6162 694.8205 33404.3900
v 349.6258 694.9155 33404.3900
v 349.6010 694.6277 33404.3900
v 349.6090 694.7230 33404.3900
v 349.5893 694.4348 33404.3900
v 349.5955 694.5302 33404.3900
v 349.5808 694.2417 33404.3900
v 349.5854 694.3372 33404.3900
v 349.5758 694.0485 33404.3900
v 349.5787 694.1440 33404.3900
v 349.5741 693.8552 33404.3900
v 349.5753 693.9507 33404.3900
v 349.5758 693.6619 33404.3900
v 349.5753 693.7574 33404.3900
v 349.5808 693.4686 33404.3900
v 349.5787 693.5641 33404.3900
v 349.5893 693.2755 33404.3900
v 349.5855 693.3710 33404.3900
v 349.6010 693.0826 33404.3900
v 349.5956 693.1779 33404.3900
v 349.6162 692.8898 33404.3900
v 349.6091 692.9851 33404.3900
v 349.6347 692.6974 33404.3900
v 349.6260 692.7926 33404.3900
v 349.6566 692.5054 33404.3900
v 349.6462 692.6003 33404.3900
v 349.6819 692.3137 33404.3900
v 349.6698 692.4085 33404.3900
v 349.7104 692.1226 33404.3900
v 349.6967 692.2171 33404.3900
v 349.7423 691.9319 33404.3900
v 349.7270 692.0262 33404.3900
v 349.7776 691.7418 33404.3900
v 349.7606 691.8358 33404.3900
v 349.8161 691.5524 33404.3900
v 349.7975 691.6461 33404.3900
v 349.8579 691.3636 33404.3900
v 349.8377 691.4570 33404.3900
v 349.9031 691.1757 33404.3900
v 349.8812 691.2687 33404.3900
v 349.9515 690.9885 33404.3900
v 349.9279 691.0812 33404.3900
v 350.0031 690.8022 33404.3900
v 349.9780 690.8945 33404.3900
v 350.0580 690.6169 33404.3900
v 350.0313 690.7087 33404.3900
v 350.1161 690.4326 33404.3900
v 350.0878 690.5238 33404.3900
v 350.1775 690.2493 33404.3900
v 350.1476 690.3400 33404.3900
v 350.2420 690.0670 33404.3900
v 350.2105 690.1572 33404.3900
v 350.3097 689.8860 33404.3900
v 350.2767 689.9756 33404.3900
v 350.3806 689.7061 33404.3900
v 350.3459 689.7952 33404.3900
v 350.4545 689.5275 33404.3900
v 350.4184 689.6160 33404.3900
v 350.5316 689.3503 33404.3900
v 350.4939 689.4380 33404.3900
v 350.6118 689.1744 33404.3900
v 350.5725 689.2615 33404.3900
v 350.6950 688.9999 33404.3900
v 350.6543 689.0863 33404.3900
v 350.7812 688.8269 33404.3900
v 350.7390 688.9125 33404.3900
v 350.8705 688.6554 33404.3900
v 350.8268 688.7404 33404.3900
v 350.9628 688.4855 33404.3900
v 350.9175 688.5697 33404.3900
v 351.0580 688.3173 33404.3900
v 351.0113 688.4006 33404.3900
v 351.1561 688.1508 33404.3900
v 351.1079 688.2333 33404.3900
v 351.2570 687.9859 33404.3900
v 351.2075 688.0676 33404.3900
v 351.3609 687.8229 33404.3900
v 351.3099 687.9037 33404.3900
v 351.4676 687.6617 33404.3900
v 351.4152 687.7416 33404.3900
v 351.5771 687.5024 33404.3900
v 351.5233 687.5814 33404.3900
v 351.6894 687.3450 33404.3900
v 351.6342 687.4230 33404.3900
v 351.8044 687.1896 33404.3900
v 351.7479 687.2667 33404.3900
v 351.9220 687.0363 33404.3900
v 351.8642 687.1123 33404.3900
v 352.0424 686.8849 33404.3900
v 351.9832 686.9600 33404.3900
v 352.1653 686.7358 33404.3900
v 352.1049 686.8098 33404.3900
v 352.2909 686.5888 33404.3900
v 352.2291 686.6617 33404.3900
v 352.4189 686.4440 33404.3900
v 352.3560 686.5159 33404.3900
v 352.5495 686.3015 33404.3900
v 352.4853 686.3723 33404.3900
v 352.6826 686.1613 33404.3900
v 352.6172 686.2309 33404.3900
v 352.8181 686.0234 33404.3900
v 352.7514 686.0919 33404.3900
v 352.9560 685.8879 33404.3900
v 352.8881 685.9552 33404.3900
v 353.0962 685.7549 33404.3900
v 353.0272 685.8209 33404.3900
v 353.2387 685.6243 33404.3900
v 353.1685 685.6891 33404.3900
v 353.3835 685.4962 33404.3900
v 353.3122 685.5598 33404.3900
v 353.5305 685.3707 33404.3900
v 353.4581 685.4330 33404.3900
v 353.6796 685.2477 33404.3900
v 353.6062 685.3088 33404.3900
v 353.8309 685.1274 33404.3900
v 353.7564 685.1871 33404.3900
v 353.9843 685.0096 33404.3900
v 353.9088 685.0682 33404.3900
v 354.1397 684.8947 33404.3900
v 354.0631 684.9518 33404.3900
v 354.2970 684.7824 33404.3900
v 354.2195 684.8383 33404.3900
v 354.4564 684.6730 33404.3900
v 354.3779 684.7274 33404.3900
v 354.6176 684.5663 33404.3900
v 354.5381 684.6193 33404.3900
v 354.7806 684.4624 33404.3900
v 354.7002 684.5141 33404.3900
v 354.9454 684.3614 33404.3900
v 354.8642 684.4117 33404.3900
v 355.1120 684.2633 33404.3900
v 355.0298 684.3121 33404.3900
v 355.2802 684.1681 33404.3900
v 355.1973 684.2155 33404.3900
v 355.4501 684.0759 33404.3900
v 355.3663 684.1218 33404.3900
v 355.6216 683.9866 33404.3900
v 355.5370 684.0311 33404.3900
v 355.7946 683.9003 33404.3900
v 355.7092 683.9434 33404.3900
v 355.9690 683.8171 33404.3900
v 355.8830 683.8586 33404.3900
v 356.1449 683.7369 33404.3900
v 356.0582 683.7770 33404.3900
v 356.3222 683.6599 33404.3900
v 356.2347 683.6984 33404.3900
v 356.5008 683.5859 33404.3900
v 356.4127 683.6229 33404.3900
v 356.6806 683.5151 33404.3900
v 356.5919 683.5505 33404.3900
v 356.8617 683.4474 33404.3900
v 356.7724 683.4812 33404.3900
v 357.0439 683.3828 33404.3900
v 356.9540 683.4151 33404.3900
v 357.2272 683.3215 33404.3900
v 357.1368 683.3522 33404.3900
v 357.4116 683.2634 33404.3900
v 357.3206 683.2925 33404.3900
v 357.5970 683.2084 33404.3900
v 357.5055 683.2360 33404.3900
v 357.7832 683.1568 33404.3900
v 357.6913 683.1827 33404.3900
v 357.9704 683.1084 33404.3900
v 357.8780 683.1328 33404.3900
v 358.1583 683.0633 33404.3900
v 358.0655 683.0860 33404.3900
v 358.3470 683.0214 33404.3900
v 358.2539 683.0425 33404.3900
v 358.5365 682.9829 33404.3900
v 358.4429 683.0024 33404.3900
v 358.7266 682.9477 33404.3900
v 358.6327 682.9655 33404.3900
v 358.9172 682.9158 33404.3900
v 358.8231 682.9319 33404.3900
v 359.1084 682.8872 33404.3900
v 359.0140 682.9017 33404.3900
v 359.3000 682.8619 33404.3900
v 359.2054 682.8749 33404.3900
v 359.4921 682.8401 33404.3900
v 359.3972 682.8513 33404.3900
v 359.6845 682.8215 33404.3900
v 359.5895 682.8311 33404.3900
v 359.8772 682.8064 33404.3900
v 359.7820 682.8143 33404.3900
v 360.0702 682.7946 33404.3900
v 359.9749 682.8008 33404.3900
v 360.2633 682.7861 33404.3900
v 360.1679 682.7908 33404.3900
v 360.4565 682.7811 33404.3900
v 360.3611 682.7840 33404.3900
v 360.6498 682.7794 33404.3900
v 360.5543 682.7806 33404.3900
v 360.8431 682.7811 33404.3900
v 360.7476 682.7807 33404.3900
v 361.0364 682.7861 33404.3900
v 360.9409 682.7841 33404.3900
v 361.2295 682.7946 33404.3900
v 361.1340 682.7908 33404.3900
v 361.4225 682.8064 33404.3900
v 361.3271 682.8010 33404.3900
v 361.6151 682.8215 33404.3900
v 361.5199 682.8145 33404.3900
v 361.8076 682.8401 33404.3900
v 361.7124 682.8314 33404.3900
v 361.9996 682.8619 33404.3900
v 361.9047 682.8516 33404.3900
v 362.1913 682.8872 33404.3900
v 362.0965 682.8751 33404.3900
v 362.3825 682.9158 33404.3900
v 362.2879 682.9020 33404.3900
v 362.5731 682.9477 33404.3900
v 362.4788 682.9323 33404.3900
v 362.7632 682.9829 33404.3900
v 362.6692 682.9659 33404.3900
v 362.9526 683.0214 33404.3900
v 362.8589 683.0028 33404.3900
v 363.1413 683.0633 33404.3900
v 363.0480 683.0430 33404.3900
v 363.3293 683.1084 33404.3900
v 363.2363 683.0865 33404.3900
v 363.5164 683.1568 33404.3900
v 363.4239 683.1333 33404.3900
v 363.7027 683.2084 33404.3900
v 363.6106 683.1833 33404.3900
v 363.8881 683.2634 33404.3900
v 363.7964 683.2366 33404.3900
v 364.0724 683.3215 33404.3900
v 363.9812 683.2932 33404.3900
v 364.2557 683.3828 33404.3900
v 364.1650 683.3529 33404.3900
v 364.4380 683.4474 33404.3900
v 364.3478 683.4159 33404.3900
v 364.6190 683.5151 33404.3900
v 364.5294 683.4820 33404.3900
v 364.7989 683.5859 33404.3900
v 364.7098 683.5513 33404.3900
v 364.9775 683.6599 33404.3900
v 364.8891 683.6237 33404.3900
v 365.1548 683.7369 33404.3900
v 365.0670 683.6993 33404.3900
v 365.3307 683.8171 33404.3900
v 365.2436 683.7779 33404.3900
v 365.5051 683.9003 33404.3900
v 365.4187 683.8596 33404.3900
v 365.6781 683.9866 33404.3900
v 365.5924 683.9443 33404.3900
v 365.8496 684.0759 33404.3900
v 365.7646 684.0321 33404.3900
v 366.0195 684.1681 33404.3900
v 365.9353 684.1229 33404.3900
v 366.1877 684.2633 33404.3900
v 366.1044 684.2166 33404.3900
v 366.3543 684.3614 33404.3900
v 366.2718 684.3133 33404.3900
v 366.5191 684.4624 33404.3900
v 366.4374 684.4128 33404.3900
v 366.6821 684.5663 33404.3900
v 366.6013 684.5153 33404.3900
v 366.8433 684.6730 33404.3900
v 366.7634 684.6205 33404.3900
v 367.0026 684.7824 33404.3900
v 366.9236 684.7287 33404.3900
v 367.1600 684.8947 33404.3900
v 367.0820 684.8395 33404.3900
v 367.3154 685.0096 33404.3900
v 367.2383 684.9532 33404.3900
v 367.4688 685.1274 33404.3900
v 367.3927 685.0695 33404.3900
v 367.6200 685.2477 33404.3900
v 367.5450 685.1885 33404.3900
v 367.7692 685.3707 33404.3900
v 367.6952 685.3102 33404.3900
v 367.9162 685.4962 33404.3900
v 367.8433 685.4344 33404.3900
v 368.0610 685.6243 33404.3900
v 367.9891 685.5613 33404.3900
v 368.2035 685.7549 33404.3900
v 368.1328 685.6906 33404.3900
v 368.3437 685.8879 33404.3900
v 368.2741 685.8224 33404.3900
v 368.4816 686.0234 33404.3900
v 368.4131 685.9568 33404.3900
v 368.6171 686.1613 33404.3900
v 368.5498 686.0934 33404.3900
v 368.7501 686.3015 33404.3900
v 368.6841 686.2325 33404.3900
v 368.8807 686.4440 33404.3900
v 368.8159 686.3739 33404.3900
v 369.0088 686.5888 33404.3900
v 368.9452 686.5175 33404.3900
v 369.1344 686.7358 33404.3900
v 369.0720 686.6635 33404.3900
v 369.2573 686.8849 33404.3900
v 369.1962 686.8115 33404.3900
v 369.3777 687.0363 33404.3900
v 369.3178 686.9617 33404.3900
v 369.4953 687.1896 33404.3900
v 369.4368 687.1141 33404.3900
v 369.6103 687.3450 33404.3900
v 369.5532 687.2684 33404.3900
v 369.7226 687.5024 33404.3900
v 369.6667 687.4249 33404.3900
v 369.8321 687.6617 33404.3900
v 369.7776 687.5832 33404.3900
v 369.9388 687.8229 33404.3900
v 369.8857 687.7435 33404.3900
v 370.0426 687.9859 33404.3900
v 369.9909 687.9056 33404.3900
v 370.1436 688.1508 33404.3900
v 370.0934 688.0695 33404.3900
v 370.2417 688.3173 33404.3900
v 370.1929 688.2352 33404.3900
v 370.3369 688.4855 33404.3900
v 370.2895 688.4026 33404.3900
v 370.4291 688.6554 33404.3900
v 370.3832 688.5717 33404.3900
v 370.5184 688.8269 33404.3900
v 370.4739 688.7423 33404.3900
v 370.6047 688.9999 33404.3900
v 370.5616 688.9146 33404.3900
v 370.6879 689.1744 33404.3900
v 370.6464 689.0883 33404.3900
v 370.7680 689.3503 33404.3900
v 370.7281 689.2635 33404.3900
v 370.8451 689.5275 33404.3900
v 370.8066 689.4401 33404.3900
v 370.9191 689.7061 33404.3900
v 370.8821 689.6180 33404.3900
v 370.9900 689.8860 33404.3900
v 370.9545 689.7972 33404.3900
v 371.0576 690.0670 33404.3900
v 371.0238 689.9777 33404.3900
v 371.1222 690.2493 33404.3900
v 371.0899 690.1594 33404.3900
v 371.1835 690.4326 33404.3900
v 371.1528 690.3421 33404.3900
v 371.2416 690.6169 33404.3900
v 371.2125 690.5259 33404.3900
v 371.2965 690.8022 33404.3900
v 371.2690 690.7108 33404.3900
v 371.3482 690.9885 33404.3900
v 371.3223 690.8966 33404.3900
v 371.3966 691.1757 33404.3900
v 371.3723 691.0833 33404.3900
v 371.4417 691.3636 33404.3900
v 371.4190 691.2709 33404.3900
v 371.4836 691.5524 33404.3900
v 371.4625 691.4592 33404.3900
v 371.5221 691.7418 33404.3900
v 371.5027 691.6483 33404.3900
v 371.5573 691.9319 33404.3900
v 371.5395 691.8380 33404.3900
v 371.5892 692.1226 33404.3900
v 371.5731 692.0284 33404.3900
v 371.6178 692.3137 33404.3900
v 371.6033 692.2193 33404.3900
v 371.6430 692.5054 33404.3900
v 371.6302 692.4107 33404.3900
v 371.6649 692.6974 33404.3900
v 371.6537 692.6025 33404.3900
v 371.6834 692.8898 33404.3900
v 371.6739 692.7948 33404.3900
v 371.6986 693.0826 33404.3900
v 371.6907 692.9874 33404.3900
v 371.7104 693.2755 33404.3900
v 371.7042 693.1802 33404.3900
v 371.7188 693.4686 33404.3900
v 371.7143 693.3732 33404.3900
v 371.7239 693.6619 33404.3900
v 371.7210 693.5664 33404.3900
v 371.7243 693.7596 33404.3900
v 371.7256 693.8552 33338.9900
v 368.4474 693.9457 33338.9900
v 360.6015 693.9832 33338.9900
v 352.7839 693.9457 33338.9900
v 349.5741 693.8552 33338.9900
v 352.8523 693.7646 33338.9900
v 360.6982 693.7272 33338.9900
v 368.5157 693.7646 33338.9900

o Shape_0
usemtl material_1
f 1 2 3
f 1 2 3

o Shape_1
usemtl material_1
f 2 4 5
f 2 4 5

o Shape_2
usemtl material_1
f 4 6 7
f 4 6 7

o Shape_3
usemtl material_1
f 1 6 8
f 1 6 8

o Shape_4
usemtl material_1
f 9 6 10
f 9 6 10

o Shape_5
usemtl material_1
f 9 11 12
f 9 11 12

o Shape_6
usemtl material_1
f 11 1 13
f 11 1 13

o Shape_7
usemtl material_1
f 1 6 8
f 1 6 8

o Shape_8
usemtl material_1
f 9 11 12
f 9 11 12

o Shape_9
usemtl material_1
f 14 9 15
f 14 9 15

o Shape_10
usemtl material_1
f 16 14 17
f 16 14 17

o Shape_11
usemtl material_1
f 11 16 18
f 11 16 18

o Shape_12
usemtl material_1
f 16 2 19
f 16 2 19

o Shape_13
usemtl material_1
f 1 2 3
f 1 2 3

o Shape_14
usemtl material_1
f 11 1 13
f 11 1 13

o Shape_15
usemtl material_1
f 11 16 18
f 11 16 18

o Shape_16
usemtl material_1
f 14 4 20
f 14 4 20

o Shape_17
usemtl material_1
f 2 4 5
f 2 4 5

o Shape_18
usemtl material_1
f 16 2 19
f 16 2 19

o Shape_19
usemtl material_1
f 16 14 17
f 16 14 17

o Shape_20
usemtl material_1
f 9 6 10
f 9 6 10

o Shape_21
usemtl material_1
f 4 6 7
f 4 6 7

o Shape_22
usemtl material_1
f 14 4 20
f 14 4 20

o Shape_23
usemtl material_1
f 14 9 15
f 14 9 15

o Shape_24
usemtl material_1
f 21 22 23
f 22 24 25
f 24 26 27
f 26 28 29
f 28 30 31
f 30 32 33
f 32 34 35
f 34 36 37
f 36 38 39
f 38 40 41
f 40 42 43
f 42 44 45
f 44 46 47
f 46 48 49
f 48 50 51
f 50 52 53
f 52 54 55
f 54 56 57
f 56 58 59
f 58 60 61
f 60 62 63
f 62 64 65
f 64 66 67
f 66 68 69
f 68 70 71
f 70 72 73
f 72 74 75
f 74 76 77
f 76 78 79
f 78 80 81
f 80 82 83
f 82 84 85
f 84 86 87
f 86 88 89
f 88 90 91
f 90 92 93
f 92 94 95
f 94 96 97
f 96 98 99
f 98 100 101
f 100 102 103
f 102 104 105
f 104 106 107
f 106 108 109
f 108 110 111
f 110 112 113
f 112 114 115
f 114 116 117
f 116 118 119
f 118 120 121
f 120 122 123
f 122 124 125
f 124 126 127
f 126 128 129
f 128 130 131
f 130 132 133
f 132 134 135
f 134 136 137
f 136 138 139
f 138 140 141
f 140 142 143
f 142 144 145
f 144 146 147
f 146 148 149
f 148 150 151
f 150 152 153
f 152 154 155
f 154 156 157
f 156 158 159
f 158 160 161
f 160 162 163
f 162 164 165
f 164 166 167
f 166 168 169
f 168 170 171
f 170 172 173
f 172 174 175
f 174 176 177
f 176 178 179
f 178 180 181
f 180 182 183
f 182 184 185
f 184 186 187
f 186 188 189
f 188 190 191
f 190 192 193
f 192 194 195
f 194 196 197
f 196 198 199
f 198 200 201
f 200 202 203
f 202 204 205
f 204 206 207
f 206 208 209
f 208 210 211
f 210 212 213
f 212 214 215
f 214 216 217
f 216 218 219
f 218 220 221
f 220 222 223
f 222 224 225
f 224 226 227
f 226 228 229
f 228 230 231
f 230 232 233
f 232 234 235
f 234 236 237
f 236 238 239
f 238 240 241
f 240 242 243
f 242 244 245
f 244 246 247
f 246 248 249
f 248 250 251
f 250 252 253
f 252 254 255
f 254 256 257
f 256 258 259
f 258 260 261
f 260 262 263
f 262 264 265
f 264 266 267
f 266 268 269
f 268 270 271
f 270 272 273
f 272 274 275
f 274 276 277
f 276 278 279
f 278 280 281
f 280 282 283
f 282 284 285
f 284 286 287
f 286 288 289
f 288 290 291
f 290 292 293
f 292 294 295
f 294 296 297
f 296 298 299
f 298 300 301
f 300 302 303
f 302 304 305
f 304 306 307
f 306 308 309
f 308 310 311
f 310 312 313
f 312 314 315
f 314 316 317
f 316 318 319
f 318 320 321
f 320 322 323
f 322 324 325
f 324 326 327
f 326 328 329
f 328 330 331
f 330 332 333
f 332 334 335
f 334 336 337
f 336 338 339
f 338 340 341
f 340 342 343
f 342 344 345
f 344 346 347
f 346 348 349
f 348 350 351
f 350 352 353
f 352 354 355
f 354 356 357
f 356 358 359
f 358 360 361
f 360 362 363
f 362 364 365
f 364 366 367
f 366 368 369
f 368 370 371
f 370 372 373
f 372 374 375
f 374 376 377
f 376 378 379
f 378 380 381
f 380 382 383
f 382 384 385
f 384 386 387
f 386 388 389
f 388 390 391
f 390 392 393
f 392 394 395
f 394 396 397
f 396 398 399
f 398 400 401
f 400 402 403
f 402 404 405
f 404 406 407
f 406 408 409
f 408 410 411
f 410 412 413
f 412 414 415
f 414 416 417
f 416 418 419
f 418 420 421
f 420 422 423
f 422 424 425
f 424 426 427
f 426 428 429
f 428 430 431
f 430 432 433
f 432 434 435
f 434 436 437
f 436 438 439
f 438 440 441
f 440 442 443
f 442 444 445
f 444 446 447
f 446 448 449
f 448 450 451
f 450 452 453
f 452 454 455
f 454 456 457
f 456 458 459
f 458 460 461
f 460 462 463
f 462 464 465
f 464 466 467
f 466 468 469
f 468 470 471
f 470 472 473
f 472 474 475
f 474 476 477
f 476 478 479
f 478 480 481
f 480 482 483
f 482 484 485
f 484 486 487
f 486 488 489
f 488 490 491
f 490 492 493
f 492 494 495
f 494 496 497
f 496 498 499
f 498 500 501
f 500 502 503
f 502 504 505
f 504 506 507
f 506 508 509
f 508 510 511
f 510 512 513
f 512 514 515
f 514 516 517
f 516 518 519
f 518 520 521
f 520 522 523
f 522 524 525
f 524 526 527
f 526 528 529
f 528 530 531
f 530 532 533
f 532 534 535
f 534 536 537
f 536 538 539
f 538 540 541
f 540 542 543
f 542 544 545
f 544 546 547
f 546 548 549
f 548 550 551
f 550 552 553
f 552 554 555
f 554 556 557
f 556 558 559
f 558 560 561
f 560 562 563
f 562 564 565
f 564 566 567
f 566 568 569
f 568 570 571
f 570 572 573
f 572 574 575
f 574 576 577
f 576 578 579
f 578 580 581
f 580 582 583
f 582 584 585
f 584 586 587
f 586 588 589
f 588 590 591
f 590 592 593
f 592 594 595
f 594 596 597
f 596 598 599
f 598 600 601
f 600 602 603
f 602 604 605
f 604 606 607
f 606 608 609
f 608 610 611
f 610 612 613
f 612 614 615
f 614 616 617
f 616 618 619
f 618 620 621
f 620 622 623
f 622 624 625
f 624 626 627
f 626 628 629
f 628 630 631
f 630 632 633
f 632 634 635
f 634 636 637
f 636 638 639
f 638 640 641
f 640 642 643
f 642 644 645
f 644 646 647
f 646 648 649
f 648 650 651
f 650 652 653
f 652 654 655
f 654 656 657
f 656 658 659
f 658 660 661
f 660 662 663
f 662 664 665
f 664 666 667
f 666 668 669
f 668 670 671
f 670 672 673
f 672 674 675
f 674 676 677
f 676 678 679
f 678 680 681
f 680 682 683
f 682 684 685
f 684 686 687
f 686 688 689
f 688 690 691
f 690 692 693
f 692 694 695
f 694 696 697
f 696 698 699
f 698 700 701
f 700 702 703
f 702 704 705
f 704 706 707
f 706 708 709
f 708 710 711
f 710 712 713
f 712 714 715
f 714 716 717
f 716 718 719
f 718 720 721
f 720 722 723
f 722 724 725
f 724 726 727
f 726 728 729
f 728 730 731
f 730 732 733
f 732 734 735
f 734 736 737
f 736 738 739
f 738 21 740

o Shape_25
usemtl material_1
f 741 742 743
f 742 744 745
f 744 746 747
f 746 748 749
f 748 750 751
f 750 752 753
f 752 754 755
f 754 756 757
f 756 758 759
f 758 760 761
f 760 762 763
f 762 764 765
f 764 766 767
f 766 768 769
f 768 770 771
f 770 772 773
f 772 774 775
f 774 776 777
f 776 778 779
f 778 780 781
f 780 782 783
f 782 784 785
f 784 786 787
f 786 788 789
f 788 790 791
f 790 792 793
f 792 794 795
f 794 796 797
f 796 798 799
f 798 800 801
f 800 802 803
f 802 804 805
f 804 806 807
f 806 808 809
f 808 810 811
f 810 812 813
f 812 814 815
f 814 816 817
f 816 818 819
f 818 820 821
f 820 822 823
f 822 824 825
f 824 826 827
f 826 828 829
f 828 830 831
f 830 832 833
f 832 834 835
f 834 836 837
f 836 838 839
f 838 840 841
f 840 842 843
f 842 844 845
f 844 846 847
f 846 848 849
f 848 850 851
f 850 852 853
f 852 854 855
f 854 856 857
f 856 858 859
f 858 860 861
f 860 862 863
f 862 864 865
f 864 866 867
f 866 868 869
f 868 870 871
f 870 872 873
f 872 874 875
f 874 876 877
f 876 878 879
f 878 880 881
f 880 882 883
f 882 884 885
f 884 886 887
f 886 888 889
f 888 890 891
f 890 892 893
f 892 894 895
f 894 896 897
f 896 898 899
f 898 900 901
f 900 902 903
f 902 904 905
f 904 906 907
f 906 908 909
f 908 910 911
f 910 912 913
f 912 914 915
f 914 916 917
f 916 918 919
f 918 920 921
f 920 922 923
f 922 924 925
f 924 926 927
f 926 928 929
f 928 930 931
f 930 932 933
f 932 934 935
f 934 936 937
f 936 938 939
f 938 940 941
f 940 942 943
f 942 944 945
f 944 946 947
f 946 948 949
f 948 950 951
f 950 952 953
f 952 954 955
f 954 956 957
f 956 958 959
f 958 960 961
f 960 962 963
f 962 964 965
f 964 966 967
f 966 968 969
f 968 970 971
f 970 972 973
f 972 974 975
f 974 976 977
f 976 978 979
f 978 980 981
f 980 982 983
f 982 984 985
f 984 986 987
f 986 988 989
f 988 990 991
f 990 992 993
f 992 994 995
f 994 996 997
f 996 998 999
f 998 1000 1001
f 1000 1002 1003
f 1002 1004 1005
f 1004 1006 1007
f 1006 1008 1009
f 1008 1010 1011
f 1010 1012 1013
f 1012 1014 1015
f 1014 1016 1017
f 1016 1018 1019
f 1018 1020 1021
f 1020 1022 1023
f 1022 1024 1025
f 1024 1026 1027
f 1026 1028 1029
f 1028 1030 1031
f 1030 1032 1033
f 1032 1034 1035
f 1034 1036 1037
f 1036 1038 1039
f 1038 1040 1041
f 1040 1042 1043
f 1042 1044 1045
f 1044 1046 1047
f 1046 1048 1049
f 1048 1050 1051
f 1050 1052 1053
f 1052 1054 1055
f 1054 1056 1057
f 1056 1058 1059
f 1058 1060 1061
f 1060 1062 1063
f 1062 1064 1065
f 1064 1066 1067
f 1066 1068 1069
f 1068 1070 1071
f 1070 1072 1073
f 1072 1074 1075
f 1074 1076 1077
f 1076 1078 1079
f 1078 1080 1081
f 1080 1082 1083
f 1082 1084 1085
f 1084 1086 1087
f 1086 1088 1089
f 1088 1090 1091
f 1090 1092 1093
f 1092 1094 1095
f 1094 1096 1097
f 1096 1098 1099
f 1098 1100 1101
f 1100 1102 1103
f 1102 1104 1105
f 1104 1106 1107
f 1106 1108 1109
f 1108 1110 1111
f 1110 1112 1113
f 1112 1114 1115
f 1114 1116 1117
f 1116 1118 1119
f 1118 1120 1121
f 1120 1122 1123
f 1122 1124 1125
f 1124 1126 1127
f 1126 1128 1129
f 1128 1130 1131
f 1130 1132 1133
f 1132 1134 1135
f 1134 1136 1137
f 1136 1138 1139
f 1138 1140 1141
f 1140 1142 1143
f 1142 1144 1145
f 1144 1146 1147
f 1146 1148 1149
f 1148 1150 1151
f 1150 1152 1153
f 1152 1154 1155
f 1154 1156 1157
f 1156 1158 1159
f 1158 1160 1161
f 1160 1162 1163
f 1162 1164 1165
f 1164 1166 1167
f 1166 1168 1169
f 1168 1170 1171
f 1170 1172 1173
f 1172 1174 1175
f 1174 1176 1177
f 1176 1178 1179
f 1178 1180 1181
f 1180 1182 1183
f 1182 1184 1185
f 1184 1186 1187
f 1186 1188 1189
f 1188 1190 1191
f 1190 1192 1193
f 1192 1194 1195
f 1194 1196 1197
f 1196 1198 1199
f 1198 1200 1201
f 1200 1202 1203
f 1202 1204 1205
f 1204 1206 1207
f 1206 1208 1209
f 1208 1210 1211
f 1210 1212 1213
f 1212 1214 1215
f 1214 1216 1217
f 1216 1218 1219
f 1218 1220 1221
f 1220 1222 1223
f 1222 1224 1225
f 1224 1226 1227
f 1226 1228 1229
f 1228 1230 1231
f 1230 1232 1233
f 1232 1234 1235
f 1234 1236 1237
f 1236 1238 1239
f 1238 1240 1241
f 1240 1242 1243
f 1242 1244 1245
f 1244 1246 1247
f 1246 1248 1249
f 1248 1250 1251
f 1250 1252 1253
f 1252 1254 1255
f 1254 1256 1257
f 1256 1258 1259
f 1258 1260 1261
f 1260 1262 1263
f 1262 1264 1265
f 1264 1266 1267
f 1266 1268 1269
f 1268 1270 1271
f 1270 1272 1273
f 1272 1274 1275
f 1274 1276 1277
f 1276 1278 1279
f 1278 1280 1281
f 1280 1282 1283
f 1282 1284 1285
f 1284 1286 1287
f 1286 1288 1289
f 1288 1290 1291
f 1290 1292 1293
f 1292 1294 1295
f 1294 1296 1297
f 1296 1298 1299
f 1298 1300 1301
f 1300 1302 1303
f 1302 1304 1305
f 1304 1306 1307
f 1306 1308 1309
f 1308 1310 1311
f 1310 1312 1313
f 1312 1314 1315
f 1314 1316 1317
f 1316 1318 1319
f 1318 1320 1321
f 1320 1322 1323
f 1322 1324 1325
f 1324 1326 1327
f 1326 1328 1329
f 1328 1330 1331
f 1330 1332 1333
f 1332 1334 1335
f 1334 1336 1337
f 1336 1338 1339
f 1338 1340 1341
f 1340 1342 1343
f 1342 1344 1345
f 1344 1346 1347
f 1346 1348 1349
f 1348 1350 1351
f 1350 1352 1353
f 1352 1354 1355
f 1354 1356 1357
f 1356 1358 1359
f 1358 1360 1361
f 1360 1362 1363
f 1362 1364 1365
f 1364 1366 1367
f 1366 1368 1369
f 1368 1370 1371
f 1370 1372 1373
f 1372 1374 1375
f 1374 1376 1377
f 1376 1378 1379
f 1378 1380 1381
f 1380 1382 1383
f 1382 1384 1385
f 1384 1386 1387
f 1386 1388 1389
f 1388 1390 1391
f 1390 1392 1393
f 1392 1394 1395
f 1394 1396 1397
f 1396 1398 1399
f 1398 1400 1401
f 1400 1402 1403
f 1402 1404 1405
f 1404 1406 1407
f 1406 1408 1409
f 1408 1410 1411
f 1410 1412 1413
f 1412 1414 1415
f 1414 1416 1417
f 1416 1418 1419
f 1418 1420 1421
f 1420 1422 1423
f 1422 1424 1425
f 1424 1426 1427
f 1426 1428 1429
f 1428 1430 1431
f 1430 1432 1433
f 1432 1434 1435
f 1434 1436 1437
f 1436 1438 1439
f 1438 1440 1441
f 1440 1442 1443
f 1442 1444 1445
f 1444 1446 1447
f 1446 1448 1449
f 1448 1450 1451
f 1450 1452 1453
f 1452 1454 1455
f 1454 1456 1457
f 1456 1458 1459
f 1458 741 1460

o Shape_26
usemtl material_1
f 21 741 1461
f 21 741 1461

o Shape_27
usemtl material_1
f 650 830 1462
f 650 830 1462

o Shape_28
usemtl material_1
f 560 920 1463
f 560 920 1463

o Shape_29
usemtl material_1
f 470 1010 1464
f 470 1010 1464

o Shape_30
usemtl material_1
f 380 1100 1465
f 380 1100 1465

o Shape_31
usemtl material_1
f 290 1190 1466
f 290 1190 1466

o Shape_32
usemtl material_1
f 200 1280 1467
f 200 1280 1467

o Shape_33
usemtl material_1
f 110 1370 1468
f 110 1370 1468

o Shape_34
usemtl material_1
f 21 741 1461
f 21 741 1461

